{"glyphs":{":":{"x_min":0,"x_max":332,"ha":332,"o":"m 131 299 q 131 311 140 320 q 149 328 161 328 q 172 328 181 320 q 190 311 190 299 q 190 287 181 279 q 172 271 161 271 q 149 271 140 279 q 131 287 131 299 z m 46 69 q 46 81 55 90 q 64 98 76 98 q 87 98 96 90 q 105 81 105 69 q 105 57 96 49 q 87 41 76 41 q 64 41 55 49 q 46 57 46 69 z"},"$":{"x_min":0,"x_max":335,"ha":335,"o":"m 303 380 q 303 369 294 369 q 288 369 286 372 q 284 374 283 379 q 281 386 280 392 q 279 399 277 405 q 273 419 266 432 q 260 444 249 452 q 237 401 223 352 q 209 302 195 252 q 216 235 232 212 q 249 189 251 145 q 252 120 244 98 q 236 75 222 58 q 207 42 186 32 q 166 23 140 23 l 132 23 q 132 21 130 17 l 127 4 q 126 2 126 1 q 126 0 125 -2 q 120 -23 115 -44 q 110 -66 104 -87 q 102 -96 94 -96 q 82 -96 82 -83 q 94 -28 109 28 q 86 36 64 51 q 43 66 31 86 q 29 89 26 96 q 22 103 22 107 q 21 112 24 115 q 27 118 31 118 q 37 118 41 112 q 44 106 47 100 q 50 95 55 90 q 79 58 114 49 q 128 99 142 148 q 156 196 170 246 q 148 264 130 289 q 112 314 110 360 q 109 383 118 405 q 126 427 141 444 q 156 462 176 473 q 196 484 220 484 q 228 484 232 483 l 235 494 q 240 516 244 538 q 249 559 254 580 q 256 589 264 589 q 276 589 276 579 l 276 576 q 271 550 266 525 q 260 500 254 474 q 277 460 289 433 q 301 406 303 380 z m 176 268 l 227 460 l 225 460 l 220 461 l 218 461 q 199 461 182 452 q 166 442 154 427 q 143 412 137 394 q 131 375 132 357 q 133 322 146 302 q 159 283 176 268 z m 138 45 l 143 45 q 164 45 180 54 q 197 62 208 76 q 220 91 226 110 q 231 128 230 148 q 229 179 218 198 q 206 216 189 230 q 187 225 186 220 q 185 215 183 210 l 172 168 q 170 163 169 158 q 168 153 166 148 q 158 122 152 96 q 145 71 138 45 z"},"?":{"x_min":0,"x_max":446,"ha":446,"o":"m 297 574 q 266 574 240 558 q 214 543 192 520 q 171 496 155 468 q 139 440 129 415 q 128 413 127 410 q 126 408 125 405 l 117 384 q 116 382 116 379 q 115 376 113 373 q 110 366 102 366 q 95 366 93 371 q 91 376 91 381 q 102 412 116 442 q 129 473 147 500 q 165 527 189 549 q 213 571 244 586 q 255 591 270 594 q 285 597 297 597 q 347 597 378 569 q 410 541 410 490 q 410 463 402 436 q 394 408 380 382 q 365 357 346 335 q 327 313 305 297 q 292 288 269 274 q 246 261 222 247 q 198 233 178 219 q 158 205 151 194 q 135 171 130 151 q 125 131 116 108 q 113 100 105 100 q 94 100 94 111 q 94 115 96 124 q 99 133 102 143 q 106 153 110 162 q 113 172 115 176 q 124 198 136 212 q 148 226 168 240 q 178 247 188 253 q 198 259 209 265 l 236 280 q 268 298 296 320 q 323 342 343 368 q 363 395 374 427 q 386 459 386 499 q 386 536 358 555 q 331 574 297 574 z m 68 56 q 68 64 74 69 q 79 74 87 74 q 94 74 100 69 q 105 64 105 56 q 105 48 100 43 q 94 38 87 38 q 79 38 74 43 q 68 48 68 56 z"},"<":{"x_min":0,"x_max":380,"ha":380,"o":"m 260 84 q 254 84 251 87 q 216 116 178 143 q 139 170 107 202 q 104 204 102 207 q 99 210 97 212 q 90 220 85 228 q 80 237 80 248 q 80 256 86 264 q 92 272 100 278 q 109 285 118 290 q 128 295 135 298 q 175 315 216 330 q 257 346 297 365 q 298 366 301 366 q 313 366 313 356 q 313 348 307 345 q 299 340 281 332 q 263 325 240 316 q 218 307 194 298 q 169 288 150 278 q 130 269 117 261 q 104 253 104 246 q 104 238 116 224 q 129 211 147 196 q 165 181 187 166 q 209 150 227 136 q 245 122 258 112 q 270 101 270 96 q 270 84 260 84 z"},"'":{"x_min":0,"x_max":211,"ha":211,"o":"m 78 372 q 78 377 79 379 l 85 388 l 96 406 l 102 415 q 108 424 114 434 q 119 443 125 453 q 128 459 134 459 q 146 459 146 449 q 146 445 140 434 q 134 422 126 408 q 117 395 110 383 q 102 371 99 367 q 94 362 90 362 q 78 362 78 372 z"},"=":{"x_min":0,"x_max":525,"ha":525,"o":"m 274 269 l 148 269 q 143 269 140 272 q 137 276 137 281 q 137 292 148 292 l 232 292 q 253 292 274 292 q 295 292 316 293 q 328 293 340 293 q 353 293 365 295 q 369 296 372 296 q 375 297 378 297 q 383 297 386 294 q 390 291 390 286 q 390 278 382 275 q 377 273 362 272 q 348 270 330 270 q 313 269 297 269 q 281 269 274 269 z m 114 182 q 102 182 102 192 q 102 204 112 204 q 119 205 129 206 q 139 206 150 206 q 161 206 172 206 q 182 207 189 207 q 230 209 270 210 q 309 212 350 212 q 355 212 358 208 q 362 205 362 200 q 362 195 358 192 q 355 189 350 189 q 345 188 338 188 q 332 188 327 188 l 312 188 l 281 187 l 266 187 q 228 185 190 184 q 152 182 114 182 z"},"a":{"x_min":0,"x_max":230,"ha":230,"o":"m 91 134 q 85 125 76 114 q 68 102 58 92 q 49 83 40 76 q 30 70 22 70 q 6 70 2 83 q -2 96 -2 108 q -2 123 8 146 q 17 169 32 190 q 46 212 64 228 q 82 243 99 243 q 109 243 116 237 q 124 231 126 221 q 138 235 143 235 q 155 235 155 225 q 155 220 154 218 q 139 192 129 166 q 119 139 119 109 q 119 100 122 89 q 124 78 136 78 q 150 78 166 89 q 181 100 196 116 q 211 131 224 146 q 237 162 246 171 q 251 176 255 176 q 260 176 264 172 q 267 169 267 164 q 267 162 266 160 q 265 159 264 157 q 255 145 240 128 q 224 110 206 94 q 189 78 170 66 q 152 55 136 55 q 111 55 103 74 q 95 92 95 112 q 95 117 96 121 q 96 125 97 130 l 98 138 q 94 134 91 134 z m 23 93 q 29 97 38 106 q 46 115 55 127 q 64 139 74 153 q 84 167 94 180 q 98 191 100 201 q 103 211 103 217 q 103 219 99 219 q 87 219 74 206 q 60 192 48 174 q 37 155 30 136 q 22 117 22 106 q 22 103 22 100 q 22 96 23 93 z"},"L":{"x_min":0,"x_max":611,"ha":611,"o":"m 357 110 q 333 110 309 118 q 305 119 297 123 q 280 69 259 12 q 238 -46 212 -93 q 241 -107 274 -124 q 306 -142 340 -158 q 373 -173 408 -184 q 444 -194 479 -194 q 519 -194 548 -182 q 576 -169 608 -146 q 612 -144 615 -144 q 620 -144 624 -147 q 627 -150 627 -155 q 627 -162 620 -167 q 613 -172 608 -175 q 580 -196 546 -206 q 513 -217 478 -217 q 440 -217 403 -206 q 366 -195 331 -179 q 296 -163 263 -145 q 230 -127 200 -113 q 192 -125 182 -138 q 172 -152 160 -162 q 147 -173 133 -180 q 119 -187 103 -187 q 78 -187 65 -167 q 52 -147 52 -125 q 52 -96 74 -80 q 97 -65 123 -65 q 138 -65 154 -70 q 171 -75 190 -83 q 204 -59 216 -31 q 228 -3 239 26 q 250 54 260 82 q 269 109 276 132 q 231 157 209 201 q 187 245 187 298 q 187 302 188 310 q 188 317 190 324 q 191 332 194 338 q 197 343 203 343 q 208 343 211 340 q 214 336 214 331 q 214 321 212 311 q 210 301 210 291 q 210 249 230 212 q 250 176 284 156 q 287 164 289 172 q 291 180 293 185 q 322 274 353 365 q 384 456 433 537 q 442 551 453 566 q 464 580 478 592 q 492 604 508 612 q 524 619 543 619 q 554 619 564 615 q 575 611 584 605 q 599 596 609 580 q 619 564 624 545 q 629 526 631 507 q 633 488 633 471 q 633 434 624 393 q 616 352 600 312 q 583 272 559 235 q 535 198 504 170 q 473 143 436 126 q 399 110 357 110 z m 304 145 q 331 134 360 134 q 399 134 432 150 q 465 166 493 192 q 521 219 542 254 q 564 288 579 326 q 594 363 602 401 q 610 439 610 472 q 610 489 608 510 q 605 532 598 550 q 590 569 576 582 q 563 595 540 595 q 515 595 491 572 q 467 548 445 511 q 423 474 404 428 q 384 383 368 339 q 352 295 340 258 q 329 221 322 200 q 318 187 314 174 q 309 160 304 145 z m 178 -103 q 145 -89 120 -89 q 102 -89 89 -99 q 76 -109 76 -129 q 76 -143 84 -153 q 91 -163 106 -163 q 125 -163 143 -146 q 161 -130 178 -103 z"},"3":{"x_min":0,"x_max":2103,"ha":2103,"o":"m 47 319 q 47 383 58 430 q 69 477 96 508 q 122 539 166 554 q 211 569 278 569 q 345 569 389 554 q 433 539 460 508 q 486 477 497 430 q 508 383 508 319 q 508 256 497 208 q 486 161 460 130 q 433 99 389 84 q 345 68 278 68 q 211 68 166 84 q 122 99 96 130 q 69 161 58 208 q 47 256 47 319 z m 79 319 q 79 262 87 220 q 95 177 117 148 q 139 120 178 106 q 217 92 278 92 q 339 92 378 106 q 416 120 438 148 q 460 177 468 220 q 476 262 476 319 q 476 376 468 418 q 460 460 438 488 q 416 517 378 531 q 339 545 278 545 q 217 545 178 531 q 140 517 118 488 q 96 460 88 418 q 79 376 79 319 z m 2007 318 q 2007 238 1962 192 q 1918 146 1837 146 q 1756 146 1712 192 q 1667 238 1667 318 q 1667 398 1712 444 q 1756 490 1837 490 q 1917 490 1962 444 q 2007 398 2007 318 z m 293 256 l 293 298 l 291 303 l 187 409 l 187 208 q 187 205 188 198 q 188 191 193 191 l 137 191 q 142 191 142 198 q 143 205 143 208 l 143 453 q 143 457 142 462 q 142 468 137 470 l 193 470 l 191 468 q 191 453 203 441 l 290 353 l 291 352 q 293 352 293 353 l 293 469 q 293 472 292 478 q 292 485 287 486 l 346 486 q 337 482 337 469 l 337 256 z m 218 433 q 219 447 219 458 q 219 468 218 476 q 217 484 212 486 l 268 486 q 263 484 262 469 q 260 454 260 436 q 260 419 261 404 q 262 390 262 389 z m 880 317 q 880 257 846 214 q 813 171 753 158 q 736 154 718 154 q 701 153 684 153 l 568 153 l 568 483 l 687 483 q 728 483 763 474 q 798 465 824 445 q 850 425 865 394 q 880 362 880 317 z m 945 153 l 945 483 l 1184 483 l 1184 419 l 1030 419 l 1030 362 l 1173 362 l 1173 299 l 1030 299 l 1030 217 l 1184 217 l 1184 153 z m 1517 153 l 1517 374 l 1456 230 l 1397 230 l 1335 374 l 1335 153 l 1255 153 l 1255 483 l 1354 483 l 1428 317 l 1503 483 l 1602 483 l 1602 153 z m 212 151 q 216 153 217 158 q 218 163 218 168 l 218 370 l 262 325 q 262 321 262 310 q 261 299 261 287 q 261 275 262 265 q 263 255 265 252 l 273 251 l 355 251 l 365 252 q 368 255 368 260 l 368 441 q 368 446 368 451 q 367 456 362 458 l 418 458 q 414 456 413 451 q 412 446 412 441 l 412 184 q 412 181 412 174 q 413 167 418 167 l 362 167 q 367 167 368 174 q 368 181 368 184 q 368 189 369 202 q 370 215 365 220 l 265 220 q 262 216 262 211 l 262 168 q 262 163 262 158 q 263 153 268 151 z m 1837 208 q 1860 208 1876 218 q 1892 227 1902 243 q 1911 259 1915 278 q 1919 298 1919 318 q 1919 338 1915 358 q 1911 377 1902 393 q 1892 409 1876 418 q 1860 428 1837 428 q 1814 428 1798 418 q 1782 409 1772 393 q 1763 377 1759 358 q 1755 338 1755 318 q 1755 298 1759 278 q 1763 259 1772 243 q 1782 227 1798 218 q 1814 208 1837 208 z m 792 319 q 792 348 784 368 q 775 387 760 399 q 744 411 722 416 q 701 421 674 421 l 653 421 l 653 215 l 674 215 q 730 215 761 238 q 792 260 792 319 z m 337 215 q 337 213 336 206 q 336 199 336 191 q 336 183 338 176 q 339 169 343 167 l 287 167 q 291 168 292 176 q 294 183 294 192 q 294 200 294 208 q 293 215 293 215 z"},";":{"x_min":0,"x_max":303,"ha":303,"o":"m 131 299 q 131 311 140 320 q 149 328 161 328 q 172 328 181 320 q 190 311 190 299 q 190 287 181 279 q 172 271 161 271 q 149 271 140 279 q 131 287 131 299 z m 24 -16 q 24 -10 28 -8 q 31 -6 36 -4 q 41 -3 47 0 q 53 2 59 8 q 74 24 78 44 q 82 65 86 86 q 86 96 96 96 q 108 96 108 86 q 108 71 104 52 q 100 32 91 14 q 82 -3 69 -16 q 56 -28 38 -28 q 33 -28 28 -26 q 24 -23 24 -16 z"},"J":{"x_min":0,"x_max":622,"ha":622,"o":"m 284 312 q 284 305 284 296 q 284 288 273 288 q 264 288 262 296 q 261 303 261 309 q 261 328 263 346 q 265 365 271 383 q 285 425 314 468 q 344 511 383 546 q 422 581 468 604 q 513 626 560 626 q 595 626 610 603 q 624 580 624 548 q 624 543 623 541 q 618 481 600 416 q 583 350 557 283 q 574 288 592 292 q 609 296 626 299 l 628 300 q 633 300 636 296 q 640 293 640 288 q 640 279 630 277 q 617 273 604 270 q 591 268 578 265 l 546 256 q 531 221 507 172 q 483 123 452 69 q 422 15 384 -38 q 347 -91 306 -133 q 266 -175 222 -201 q 178 -227 133 -227 q 88 -227 66 -202 q 45 -176 45 -133 q 45 -107 56 -75 q 68 -43 83 -21 q 119 30 170 75 q 220 120 278 158 q 337 195 401 224 q 465 254 528 274 q 540 303 553 338 q 566 374 576 411 q 587 448 594 484 q 601 521 601 551 q 601 574 592 588 q 582 602 556 602 q 518 602 479 583 q 440 564 406 534 q 372 505 345 470 q 318 434 303 401 q 284 357 284 312 z m 516 246 q 502 241 487 236 q 472 230 458 224 q 426 210 384 190 q 343 169 300 142 q 256 116 214 84 q 173 52 141 16 q 109 -19 89 -58 q 69 -96 69 -137 q 69 -172 86 -188 q 104 -203 139 -203 q 159 -203 178 -196 q 197 -189 215 -178 q 233 -168 249 -154 q 265 -141 278 -128 q 313 -94 346 -50 q 380 -7 410 42 q 440 91 467 143 q 494 195 516 246 z"},"V":{"x_min":0,"x_max":566,"ha":566,"o":"m 39 265 q 27 265 27 275 q 27 287 37 287 q 53 289 66 291 q 80 293 95 299 q 130 312 160 336 q 190 359 216 389 q 236 458 256 515 q 277 572 297 603 q 302 611 310 618 q 317 626 326 626 q 337 626 342 618 q 346 610 346 600 q 346 577 336 550 q 325 524 316 503 l 316 502 q 301 473 281 441 q 261 409 237 380 q 222 326 208 266 q 194 207 184 150 q 173 93 166 42 q 160 -9 160 -48 q 160 -61 162 -82 q 163 -103 171 -114 q 172 -115 175 -115 q 178 -115 180 -115 q 206 -115 244 -78 q 283 -42 327 15 q 371 72 416 141 q 461 210 500 275 q 540 340 570 392 q 600 445 613 469 l 673 587 q 677 594 683 594 q 688 594 692 590 q 695 587 695 582 q 695 581 693 577 q 675 538 643 477 q 611 416 570 346 q 530 276 484 203 q 438 130 392 66 q 347 2 304 -48 q 262 -97 229 -119 q 218 -127 204 -132 q 191 -138 176 -138 q 162 -138 154 -129 q 146 -120 142 -107 q 139 -94 138 -80 q 137 -65 137 -55 l 137 -47 q 137 -18 142 26 q 147 70 156 122 q 165 174 178 231 q 190 288 204 343 q 169 309 128 287 q 87 265 39 265 z m 256 444 q 266 459 277 478 q 288 498 298 519 q 308 540 315 561 q 322 582 323 600 q 314 592 304 571 q 294 550 284 526 q 275 502 268 479 q 260 456 256 444 z"},"\"":{"x_min":0,"x_max":231,"ha":231,"o":"m 78 372 q 78 377 79 379 l 85 388 l 96 406 l 102 415 q 108 424 114 434 q 119 443 125 453 q 128 459 134 459 q 146 459 146 449 q 146 445 140 434 q 134 422 126 408 q 117 395 110 383 q 102 371 99 367 q 94 362 90 362 q 78 362 78 372 z m 122 372 q 122 377 123 379 l 129 388 l 140 406 l 146 415 q 152 424 158 434 q 163 443 169 453 q 172 459 178 459 q 190 459 190 449 q 190 445 184 434 q 178 422 170 408 q 161 395 154 383 q 146 371 143 367 q 138 362 134 362 q 122 362 122 372 z"},"7":{"x_min":0,"x_max":2103,"ha":2103,"o":"m 47 319 q 47 383 58 430 q 69 477 96 508 q 122 539 166 554 q 211 569 278 569 q 345 569 389 554 q 433 539 460 508 q 486 477 497 430 q 508 383 508 319 q 508 256 497 208 q 486 161 460 130 q 433 99 389 84 q 345 68 278 68 q 211 68 166 84 q 122 99 96 130 q 69 161 58 208 q 47 256 47 319 z m 79 319 q 79 262 87 220 q 95 177 117 148 q 139 120 178 106 q 217 92 278 92 q 339 92 378 106 q 416 120 438 148 q 460 177 468 220 q 476 262 476 319 q 476 376 468 418 q 460 460 438 488 q 416 517 378 531 q 339 545 278 545 q 217 545 178 531 q 140 517 118 488 q 96 460 88 418 q 79 376 79 319 z m 2007 318 q 2007 238 1962 192 q 1918 146 1837 146 q 1756 146 1712 192 q 1667 238 1667 318 q 1667 398 1712 444 q 1756 490 1837 490 q 1917 490 1962 444 q 2007 398 2007 318 z m 293 256 l 293 298 l 291 303 l 187 409 l 187 208 q 187 205 188 198 q 188 191 193 191 l 137 191 q 142 191 142 198 q 143 205 143 208 l 143 453 q 143 457 142 462 q 142 468 137 470 l 193 470 l 191 468 q 191 453 203 441 l 290 353 l 291 352 q 293 352 293 353 l 293 469 q 293 472 292 478 q 292 485 287 486 l 346 486 q 337 482 337 469 l 337 256 z m 218 433 q 219 447 219 458 q 219 468 218 476 q 217 484 212 486 l 268 486 q 263 484 262 469 q 260 454 260 436 q 260 419 261 404 q 262 390 262 389 z m 880 317 q 880 257 846 214 q 813 171 753 158 q 736 154 718 154 q 701 153 684 153 l 568 153 l 568 483 l 687 483 q 728 483 763 474 q 798 465 824 445 q 850 425 865 394 q 880 362 880 317 z m 945 153 l 945 483 l 1184 483 l 1184 419 l 1030 419 l 1030 362 l 1173 362 l 1173 299 l 1030 299 l 1030 217 l 1184 217 l 1184 153 z m 1517 153 l 1517 374 l 1456 230 l 1397 230 l 1335 374 l 1335 153 l 1255 153 l 1255 483 l 1354 483 l 1428 317 l 1503 483 l 1602 483 l 1602 153 z m 212 151 q 216 153 217 158 q 218 163 218 168 l 218 370 l 262 325 q 262 321 262 310 q 261 299 261 287 q 261 275 262 265 q 263 255 265 252 l 273 251 l 355 251 l 365 252 q 368 255 368 260 l 368 441 q 368 446 368 451 q 367 456 362 458 l 418 458 q 414 456 413 451 q 412 446 412 441 l 412 184 q 412 181 412 174 q 413 167 418 167 l 362 167 q 367 167 368 174 q 368 181 368 184 q 368 189 369 202 q 370 215 365 220 l 265 220 q 262 216 262 211 l 262 168 q 262 163 262 158 q 263 153 268 151 z m 1837 208 q 1860 208 1876 218 q 1892 227 1902 243 q 1911 259 1915 278 q 1919 298 1919 318 q 1919 338 1915 358 q 1911 377 1902 393 q 1892 409 1876 418 q 1860 428 1837 428 q 1814 428 1798 418 q 1782 409 1772 393 q 1763 377 1759 358 q 1755 338 1755 318 q 1755 298 1759 278 q 1763 259 1772 243 q 1782 227 1798 218 q 1814 208 1837 208 z m 792 319 q 792 348 784 368 q 775 387 760 399 q 744 411 722 416 q 701 421 674 421 l 653 421 l 653 215 l 674 215 q 730 215 761 238 q 792 260 792 319 z m 337 215 q 337 213 336 206 q 336 199 336 191 q 336 183 338 176 q 339 169 343 167 l 287 167 q 291 168 292 176 q 294 183 294 192 q 294 200 294 208 q 293 215 293 215 z"},"S":{"x_min":0,"x_max":474,"ha":474,"o":"m 398 469 q 398 481 410 506 q 423 531 440 560 q 429 583 408 597 q 387 611 359 611 q 326 611 289 593 q 252 575 220 547 q 189 519 168 484 q 147 449 147 415 q 147 387 162 363 q 178 339 202 318 q 226 296 256 276 q 285 255 313 234 q 319 237 342 250 q 365 262 391 276 q 417 289 438 300 q 460 311 463 311 q 468 311 472 308 q 475 304 475 299 q 475 293 468 289 q 448 278 426 268 q 405 258 385 247 q 372 240 360 234 q 347 227 333 219 q 365 193 386 163 q 407 133 407 96 q 407 68 389 38 q 371 8 345 -19 q 319 -46 290 -68 q 260 -90 237 -102 q 199 -122 158 -138 q 117 -153 73 -153 q 38 -153 14 -135 q -11 -117 -11 -79 q -11 -52 6 -22 q 23 7 50 36 q 77 66 110 94 q 144 122 178 146 q 212 171 242 190 q 272 209 292 221 q 254 250 216 278 q 178 305 158 330 q 141 351 132 372 q 123 393 123 419 q 123 438 130 456 q 138 475 146 492 q 160 519 184 545 q 208 571 237 591 q 266 611 298 623 q 331 635 362 635 q 392 635 416 620 q 440 605 454 582 q 474 612 492 634 q 511 657 519 657 q 524 657 528 654 q 531 650 531 645 q 531 643 525 635 q 519 627 510 615 q 500 603 488 588 q 477 573 466 557 q 473 539 473 516 q 473 505 470 492 q 468 479 462 468 q 457 458 448 451 q 439 444 425 444 q 414 444 406 450 q 398 457 398 469 z m 311 206 q 292 195 263 177 q 234 159 200 136 q 167 112 134 84 q 100 57 74 29 q 47 1 30 -28 q 13 -56 13 -81 q 13 -110 33 -120 q 53 -129 77 -129 q 102 -129 127 -123 q 152 -117 175 -107 q 202 -96 238 -74 q 273 -53 306 -25 q 338 3 360 35 q 383 67 383 100 q 383 128 362 154 q 341 181 311 206 z"},"}":{"x_min":0,"x_max":311,"ha":311,"o":"m 311 221 q 311 213 299 209 q 287 205 272 199 q 256 193 241 182 q 226 172 219 151 q 214 136 214 120 q 213 103 211 88 q 207 58 200 21 q 192 -16 176 -48 q 160 -80 134 -102 q 109 -123 70 -123 q 64 -123 58 -122 q 52 -120 52 -112 q 52 -100 62 -100 q 74 -100 84 -99 q 95 -98 106 -92 q 132 -79 148 -50 q 164 -22 173 12 q 182 47 187 82 q 192 118 195 143 q 196 161 204 174 q 211 187 223 197 q 235 207 250 214 q 265 221 280 226 q 272 235 262 245 q 253 255 245 266 q 237 278 232 290 q 226 302 226 315 q 226 335 230 354 q 234 374 238 394 q 243 413 246 432 q 250 452 250 472 q 250 505 240 528 q 231 550 219 565 q 207 580 198 589 q 188 598 188 602 q 188 607 192 610 q 195 614 200 614 q 205 614 210 609 q 215 604 219 601 q 248 572 260 542 q 273 513 273 471 q 273 451 270 432 q 266 412 262 393 q 257 374 253 354 q 249 335 249 315 q 249 300 258 286 q 268 272 280 260 q 292 247 302 237 q 311 227 311 221 z"},"Z":{"x_min":0,"x_max":698,"ha":698,"o":"m 630 223 q 624 223 621 226 q 604 241 571 246 q 538 250 505 251 q 504 249 503 248 q 502 247 501 245 l 493 233 q 492 231 491 230 q 490 229 489 227 q 436 146 381 67 q 326 -12 258 -81 q 296 -89 334 -99 q 371 -109 408 -118 q 439 -126 473 -136 q 507 -145 539 -145 q 584 -145 613 -129 q 642 -113 660 -94 q 679 -75 689 -59 q 699 -43 705 -43 q 717 -43 717 -53 q 717 -59 712 -66 q 708 -73 705 -77 q 672 -122 633 -146 q 594 -169 537 -169 q 511 -169 482 -162 q 454 -154 429 -148 q 382 -137 334 -124 q 287 -110 239 -100 q 211 -126 175 -146 q 139 -167 101 -167 q 93 -167 82 -164 q 71 -161 62 -156 q 52 -150 46 -142 q 39 -135 39 -125 q 39 -106 48 -94 q 56 -83 68 -76 q 81 -70 97 -68 q 113 -65 128 -65 q 154 -65 180 -68 q 205 -70 231 -75 q 261 -47 292 -10 q 323 27 354 70 q 384 112 415 158 q 446 204 476 251 q 469 251 446 252 q 424 252 399 255 q 374 258 354 264 q 335 269 335 279 q 335 284 338 288 q 341 291 346 291 q 347 291 351 289 q 378 278 417 276 q 456 275 491 274 q 536 345 578 410 q 620 475 658 526 q 607 526 564 544 q 520 561 479 582 q 438 603 397 620 q 356 638 311 638 q 283 638 256 629 q 229 620 208 604 q 186 587 173 563 q 160 539 160 509 q 160 494 164 480 q 168 465 176 453 q 185 441 198 434 q 210 426 226 426 q 238 426 244 430 q 251 433 256 436 q 260 440 263 444 q 266 447 270 447 q 282 447 282 437 q 282 430 276 424 q 265 412 252 407 q 239 402 224 402 q 202 402 186 412 q 169 422 158 438 q 147 454 142 474 q 136 494 136 513 q 136 536 144 558 q 153 579 168 598 q 183 616 202 630 q 222 643 243 650 q 279 662 318 662 q 362 662 402 644 q 443 627 484 606 q 525 584 568 566 q 610 549 658 549 q 662 549 666 549 q 671 549 677 550 q 708 588 734 610 q 761 633 782 633 q 795 633 804 626 q 814 619 814 605 q 814 586 802 572 q 790 559 771 550 q 752 541 730 536 q 709 530 689 528 q 659 490 632 450 q 606 409 580 367 l 519 274 q 528 273 548 272 q 568 270 588 266 q 609 261 624 254 q 640 247 640 235 q 640 223 630 223 z m 711 555 q 725 558 740 562 q 754 567 766 573 q 777 579 784 587 q 791 595 791 605 q 791 608 788 608 q 784 609 782 609 q 768 609 750 594 q 731 578 711 555 z m 209 -95 q 189 -92 169 -90 q 149 -88 129 -88 q 120 -88 108 -89 q 96 -90 86 -94 q 76 -97 69 -104 q 62 -112 62 -124 q 62 -129 67 -132 q 72 -136 79 -138 q 86 -140 93 -142 q 100 -143 103 -143 q 128 -143 154 -130 q 181 -118 209 -95 z"},"x":{"x_min":0,"x_max":216,"ha":216,"o":"m 13 122 q 13 129 15 147 q 17 165 22 184 q 26 202 32 216 q 38 231 47 231 q 52 231 56 228 q 59 224 59 219 q 59 217 57 213 q 47 194 42 168 q 36 143 36 122 q 41 125 45 128 q 49 131 51 133 q 67 147 83 160 q 99 174 113 189 q 121 197 126 204 q 132 212 137 221 q 141 228 147 228 q 151 228 154 225 q 158 222 158 217 q 158 209 147 195 q 136 181 118 164 q 101 147 80 129 q 58 111 38 94 q 41 80 48 68 q 56 57 72 57 q 96 57 123 76 q 150 94 174 116 q 198 139 216 158 q 234 176 240 176 q 245 176 248 172 q 252 169 252 164 q 252 160 248 156 q 234 140 214 119 q 193 98 170 79 q 146 60 120 47 q 95 34 72 34 q 49 34 36 47 q 23 60 18 78 q 2 65 -10 55 q -21 45 -27 40 q -38 29 -48 18 q -59 8 -68 -5 q -73 -11 -78 -11 q -89 -11 -89 0 q -89 6 -79 18 q -69 31 -54 46 q -38 60 -20 75 q -2 90 14 103 q 13 108 13 112 q 13 117 13 122 z"},")":{"x_min":0,"x_max":266,"ha":266,"o":"m 205 342 q 205 245 178 150 q 151 55 98 -26 q 91 -37 78 -52 q 66 -66 51 -79 q 36 -92 20 -101 q 4 -110 -10 -110 q -22 -110 -22 -100 q -22 -91 -13 -88 q -3 -84 5 -81 q 13 -78 22 -72 q 50 -54 74 -21 q 97 12 116 50 q 134 88 147 128 q 160 167 167 198 q 182 270 182 342 q 182 411 166 467 q 151 523 111 579 q 109 583 109 585 q 109 597 119 597 q 128 597 136 585 q 144 573 148 566 q 180 516 192 458 q 205 401 205 342 z"},"&":{"x_min":0,"x_max":462,"ha":462,"o":"m 247 5 q 201 -14 154 -14 q 114 -14 90 6 q 67 25 67 67 q 67 91 76 114 q 86 138 102 162 q 118 185 138 208 q 159 232 181 255 l 181 291 q 181 311 182 341 q 184 371 190 401 q 196 431 208 456 q 219 480 240 490 q 257 499 275 499 q 303 499 318 477 q 333 455 333 430 q 333 409 322 386 q 311 364 293 340 q 275 317 252 293 q 229 269 205 245 q 207 192 216 134 q 226 77 254 33 q 296 55 328 92 q 360 128 377 173 q 386 198 388 215 q 389 232 393 257 q 393 267 403 267 q 415 267 415 257 q 415 219 404 183 q 394 147 374 116 q 355 84 328 58 q 301 32 268 15 q 277 4 287 -4 q 297 -13 309 -20 q 322 -27 333 -30 q 344 -34 354 -36 q 365 -37 376 -38 q 388 -39 402 -41 q 412 -41 412 -51 q 412 -63 402 -63 q 347 -63 310 -44 q 272 -26 247 5 z m 204 291 l 204 278 q 225 299 244 320 q 263 340 278 360 q 292 379 300 398 q 309 416 309 433 q 309 450 300 462 q 290 475 271 475 q 247 475 234 452 q 220 430 214 400 q 207 370 206 339 q 204 308 204 291 z m 233 24 q 207 65 196 116 q 186 168 183 222 q 146 182 118 142 q 91 103 91 64 q 91 31 110 20 q 130 10 159 10 q 197 10 233 24 z"},"_":{"x_min":0,"x_max":364,"ha":364,"o":"m 303 -34 q 259 -34 216 -33 q 174 -32 130 -31 q 122 -31 111 -32 q 100 -32 88 -32 q 77 -32 66 -32 q 56 -32 48 -31 q 37 -29 37 -19 q 37 -8 48 -8 q 92 -8 134 -8 q 177 -9 221 -10 q 238 -10 263 -10 q 288 -9 303 -11 q 308 -11 312 -14 q 315 -17 315 -22 q 315 -27 312 -30 q 308 -34 303 -34 z"},"v":{"x_min":0,"x_max":216,"ha":216,"o":"m 29 39 q 12 39 4 50 q -3 60 -3 76 q -3 85 4 113 q 10 141 20 172 q 30 202 41 226 q 52 250 61 250 q 66 250 70 246 q 73 243 73 238 q 73 236 71 232 q 64 219 55 198 q 46 176 38 154 q 31 131 26 110 q 20 88 20 73 q 20 67 22 64 q 23 62 29 62 q 31 62 35 65 q 39 68 41 69 q 52 78 68 98 q 85 117 101 140 q 91 157 91 174 q 91 183 93 194 q 95 206 100 216 q 106 226 114 233 q 122 240 134 240 q 145 240 152 234 q 159 227 159 216 q 159 205 151 186 q 143 166 129 143 q 140 134 155 134 q 171 134 185 140 q 199 147 210 155 q 221 163 228 170 q 236 176 240 176 q 245 176 248 172 q 252 169 252 164 q 252 158 244 151 q 237 144 226 137 q 216 130 206 125 q 195 120 190 118 q 171 111 155 111 q 134 111 117 123 q 106 107 94 92 q 82 77 70 65 q 59 53 48 46 q 38 39 29 39 z m 115 163 q 124 179 130 192 q 136 206 136 216 q 136 217 134 217 q 129 217 125 212 q 121 207 118 200 q 116 193 115 186 q 114 179 114 175 q 114 167 115 163 z"},"O":{"x_min":0,"x_max":666,"ha":666,"o":"m 80 233 q 60 245 46 262 q 33 279 26 299 q 18 319 15 341 q 12 363 12 385 q 12 418 22 456 q 32 495 48 532 q 65 569 88 602 q 110 635 135 657 q 138 659 144 664 q 149 669 155 674 q 161 679 167 683 q 173 687 176 687 q 181 687 184 684 q 188 680 188 675 q 188 669 183 666 q 170 655 158 646 q 146 636 135 625 q 114 602 96 572 q 78 543 64 510 q 51 478 44 444 q 36 410 36 379 q 36 291 87 257 q 99 299 118 342 q 136 386 160 427 q 183 468 212 505 q 242 542 276 570 q 296 587 318 604 q 339 620 362 633 q 385 646 410 654 q 436 661 463 661 q 496 661 515 644 q 534 626 542 600 q 566 589 580 568 q 594 547 602 522 q 610 496 612 469 q 615 442 615 419 q 615 367 602 306 q 588 244 562 182 q 537 121 501 63 q 465 5 420 -40 q 374 -84 320 -110 q 266 -137 206 -137 q 165 -137 137 -119 q 109 -101 92 -72 q 74 -44 66 -8 q 58 27 58 62 q 58 104 64 146 q 69 189 80 233 z m 107 247 q 135 236 172 236 q 232 236 295 262 q 358 289 409 333 q 460 377 492 436 q 525 494 525 557 q 525 564 525 571 q 525 578 523 584 q 507 590 485 590 q 458 590 432 577 q 405 564 384 549 q 362 534 347 521 q 332 508 327 508 q 316 508 316 519 q 316 525 330 538 q 345 550 364 564 q 384 577 404 588 q 423 600 433 604 q 447 609 460 612 q 474 614 488 614 q 500 614 512 611 q 504 623 492 630 q 480 638 460 638 q 423 638 386 620 q 350 601 321 578 q 284 550 250 512 q 216 474 188 430 q 160 387 139 340 q 118 293 107 247 z m 165 212 q 132 212 102 223 q 92 184 86 144 q 81 104 81 63 q 81 32 87 0 q 93 -31 108 -56 q 123 -82 148 -98 q 173 -113 210 -113 q 250 -113 288 -98 q 325 -83 357 -60 q 410 -21 454 36 q 497 92 528 157 q 558 222 574 292 q 591 361 591 427 q 591 446 589 466 q 587 486 582 504 q 578 523 570 540 q 561 556 548 568 l 548 564 l 549 556 q 549 522 540 491 q 531 460 515 430 q 492 383 454 343 q 416 303 369 274 q 322 245 270 228 q 217 212 165 212 z"},"(":{"x_min":0,"x_max":281,"ha":281,"o":"m 78 145 q 78 242 105 337 q 132 432 185 513 q 192 524 204 538 q 217 553 232 566 q 247 579 263 588 q 279 597 293 597 q 305 597 305 587 q 305 578 296 575 q 286 571 278 568 q 270 565 261 559 q 233 541 210 508 q 186 475 168 437 q 149 399 136 360 q 123 321 116 289 q 101 217 101 145 q 101 76 116 20 q 132 -36 172 -92 q 174 -96 174 -98 q 174 -110 164 -110 q 155 -110 147 -98 q 139 -86 135 -79 q 103 -29 90 28 q 78 86 78 145 z"},"C":{"x_min":0,"x_max":459,"ha":459,"o":"m 399 469 q 399 480 402 490 q 406 500 411 510 q 414 516 422 530 q 431 544 442 561 q 432 583 413 597 q 394 611 367 611 q 353 611 338 605 q 323 599 309 590 q 295 581 282 570 q 270 560 260 550 q 217 507 176 446 q 136 384 104 316 q 73 247 54 176 q 34 106 34 44 q 34 20 38 -6 q 42 -33 53 -56 q 64 -79 82 -94 q 101 -109 131 -109 q 151 -109 172 -103 q 192 -97 210 -89 q 280 -57 336 -4 q 391 49 436 111 q 447 125 456 140 q 465 156 475 171 q 479 177 485 177 q 490 177 494 174 q 497 170 497 165 q 497 163 495 159 q 444 73 373 0 q 302 -73 209 -115 q 192 -123 172 -128 q 151 -132 132 -132 q 96 -132 73 -116 q 50 -99 36 -74 q 22 -48 16 -17 q 11 14 11 43 q 11 113 34 192 q 56 272 93 348 q 130 424 178 490 q 227 556 279 598 q 299 613 322 624 q 345 635 371 635 q 400 635 421 620 q 442 606 456 583 q 475 611 493 634 q 511 657 519 657 q 524 657 528 654 q 531 650 531 645 q 531 643 525 635 q 519 627 510 615 q 501 603 490 588 q 478 574 467 559 q 474 539 474 516 q 474 505 472 492 q 469 480 464 469 q 459 458 450 451 q 441 444 427 444 q 416 444 408 450 q 399 457 399 469 z m 423 468 q 424 467 427 467 q 435 467 440 472 q 444 478 446 486 q 449 494 450 502 q 451 510 451 516 q 451 521 451 525 q 451 529 450 534 q 438 516 430 499 q 422 482 422 469 z"},"W":{"x_min":0,"x_max":769,"ha":769,"o":"m 39 265 q 27 265 27 275 q 27 285 37 287 q 84 295 116 318 q 149 342 180 379 q 184 388 193 410 q 202 433 215 462 q 228 490 244 521 q 259 552 274 578 q 290 603 304 620 q 319 636 330 636 q 343 636 343 623 q 343 618 342 612 q 341 607 339 602 q 331 581 318 552 q 304 524 286 494 q 268 463 247 432 q 226 400 202 371 q 188 337 174 300 q 160 264 148 226 q 137 189 130 151 q 123 113 123 77 q 123 63 126 46 q 129 30 136 16 q 143 1 155 -8 q 167 -18 184 -18 q 204 -18 224 0 q 245 19 265 49 q 285 79 304 118 q 323 156 340 197 q 354 269 374 339 q 394 409 414 466 q 421 484 428 503 q 435 522 444 539 q 447 545 453 545 q 467 545 467 532 q 467 519 460 492 q 454 465 444 431 q 435 397 422 360 q 410 323 398 289 q 387 255 377 228 q 367 202 362 189 q 352 139 346 93 q 341 47 341 9 q 341 -16 346 -46 q 350 -77 362 -104 q 374 -131 394 -149 q 415 -167 447 -167 q 482 -167 512 -149 q 543 -131 569 -102 q 595 -72 617 -34 q 639 4 656 43 q 672 82 683 119 q 694 156 700 184 q 708 221 712 258 q 715 295 715 333 q 715 408 698 476 q 680 544 646 611 q 645 612 645 615 q 645 627 655 627 q 663 627 666 621 q 684 591 698 556 q 711 520 720 482 q 729 444 734 406 q 738 368 738 333 q 738 302 736 271 q 733 240 728 209 q 723 176 712 134 q 700 91 682 46 q 664 2 640 -40 q 616 -83 586 -116 q 557 -150 522 -170 q 486 -191 445 -191 q 408 -191 384 -170 q 359 -150 344 -120 q 330 -89 324 -54 q 318 -19 318 10 q 318 33 320 56 q 322 80 325 106 q 316 88 302 62 q 287 37 268 14 q 250 -10 228 -26 q 206 -42 181 -42 q 160 -42 144 -30 q 129 -18 119 0 q 109 18 104 38 q 100 59 100 76 q 100 141 118 202 q 135 264 158 324 q 129 297 99 281 q 69 265 39 265 z m 251 479 q 268 506 281 532 q 294 558 305 581 q 290 556 277 530 q 264 505 251 479 z"},"A":{"x_min":0,"x_max":794,"ha":794,"o":"m 140 430 q 153 430 160 434 q 167 437 172 441 q 176 445 179 448 q 182 452 187 452 q 192 452 196 448 q 199 445 199 440 q 199 435 191 427 q 172 407 141 407 q 97 407 73 433 q 49 459 49 501 q 49 536 66 566 q 82 596 108 618 q 135 640 168 652 q 201 665 234 665 q 276 665 318 652 q 360 639 398 625 q 430 613 463 601 q 496 589 530 578 q 563 568 598 562 q 632 555 666 555 q 709 555 746 570 q 772 601 790 618 q 807 636 816 636 q 824 636 828 630 q 832 625 832 618 q 832 610 823 600 q 814 589 802 580 q 790 570 778 562 q 766 554 760 551 q 732 517 700 474 q 668 432 632 386 q 596 341 556 293 q 517 245 475 199 l 487 199 l 509 200 l 521 200 l 572 202 q 590 203 608 203 q 625 203 643 203 q 675 305 714 402 q 754 499 802 576 q 806 582 812 582 q 817 582 820 578 q 824 575 824 570 q 824 568 822 564 q 772 478 734 388 q 697 297 667 203 q 675 203 701 202 q 727 202 755 199 q 783 196 805 190 q 827 185 827 175 q 827 169 822 166 q 817 164 812 164 q 773 173 736 176 q 698 180 659 180 q 636 104 618 27 q 601 -50 584 -128 q 585 -137 586 -146 q 586 -154 586 -162 q 586 -168 586 -181 q 585 -194 582 -208 q 580 -221 576 -231 q 571 -241 563 -241 q 555 -241 552 -234 q 550 -227 550 -221 q 550 -198 553 -174 q 556 -151 561 -128 q 557 -95 546 -58 q 536 -21 520 18 q 505 56 486 94 q 466 131 444 166 q 395 114 343 67 q 291 20 238 -14 q 185 -49 132 -70 q 79 -90 28 -90 q -8 -90 -36 -78 q -63 -66 -82 -44 q -101 -23 -111 6 q -121 35 -121 68 q -121 105 -108 136 q -94 167 -71 190 q -48 213 -16 226 q 16 239 53 239 q 78 239 102 230 q 127 221 142 201 q 144 198 148 192 q 151 187 151 184 q 151 172 141 172 q 135 172 130 178 q 126 185 117 194 q 108 202 93 208 q 78 215 51 215 q 18 215 -10 204 q -37 193 -56 172 q -76 152 -86 124 q -97 97 -97 64 q -97 2 -62 -32 q -27 -66 34 -66 q 80 -66 128 -47 q 177 -28 226 5 q 276 38 325 82 q 374 126 421 176 q 390 176 353 180 q 316 183 284 194 q 252 205 230 228 q 209 250 209 288 q 209 301 212 314 q 216 327 223 338 q 230 348 242 354 q 253 361 268 361 q 291 361 318 342 q 345 324 370 299 q 394 274 415 248 q 436 221 447 204 q 487 248 525 294 q 563 339 598 382 q 632 426 663 466 q 694 506 720 538 q 693 532 665 532 q 605 532 547 550 q 489 568 433 588 q 412 596 386 606 q 361 615 335 623 q 309 631 284 636 q 258 642 235 642 q 206 642 177 632 q 148 621 125 602 q 102 583 88 556 q 73 530 73 499 q 73 467 90 448 q 108 430 140 430 z m 422 199 q 413 212 394 235 q 376 258 354 281 q 332 304 308 321 q 285 338 267 338 q 247 338 240 321 q 232 304 232 287 q 232 276 234 266 q 236 257 243 247 q 254 232 275 222 q 296 213 322 208 q 347 203 374 201 q 400 199 422 199 z m 573 -68 q 573 -67 574 -66 l 574 -61 q 575 -61 575 -59 q 587 -4 602 56 q 617 117 636 180 q 620 180 604 180 q 588 180 572 179 l 521 177 q 507 176 493 176 q 479 176 465 176 q 501 118 530 55 q 558 -8 573 -68 z"},"f":{"x_min":0,"x_max":145,"ha":145,"o":"m 177 369 q 179 372 182 378 q 184 385 188 391 q 191 397 195 402 q 199 406 203 406 q 215 406 215 396 q 215 393 210 382 q 204 370 197 357 q 190 344 184 332 q 177 321 175 318 q 169 310 164 310 q 151 310 151 321 q 151 328 155 333 q 159 338 159 347 q 159 355 154 362 q 150 370 141 370 q 117 370 99 338 q 81 307 64 256 l 68 256 l 76 255 l 80 255 l 91 255 l 115 254 l 126 254 q 131 253 134 250 q 138 247 138 242 q 138 237 134 234 q 131 231 126 231 q 109 231 91 232 q 73 232 56 233 q 40 179 24 115 q 7 51 -12 -9 q -32 -69 -56 -117 q -80 -165 -111 -188 q -119 -194 -130 -196 q -140 -199 -150 -199 q -171 -199 -186 -184 q -200 -169 -208 -151 q -209 -149 -210 -144 q -212 -138 -212 -136 q -212 -124 -202 -124 q -194 -124 -190 -132 q -187 -140 -182 -150 q -178 -159 -170 -167 q -163 -175 -146 -175 q -125 -175 -105 -150 q -85 -126 -67 -88 q -49 -49 -34 -2 q -19 45 -6 90 q 6 136 16 174 q 25 213 31 234 q 22 234 13 234 q 4 233 -4 235 q -9 235 -12 238 q -16 241 -16 246 q -16 251 -12 254 q -9 258 -4 258 q 7 258 17 258 q 27 258 38 257 q 44 277 54 300 q 63 324 76 345 q 88 366 104 380 q 121 394 141 394 q 164 394 177 369 z"},"Q":{"x_min":0,"x_max":630,"ha":630,"o":"m 636 -279 q 648 -279 660 -276 q 671 -274 679 -274 q 684 -274 688 -277 q 691 -280 691 -285 q 691 -292 684 -296 q 676 -299 666 -300 q 656 -302 646 -302 q 636 -303 631 -303 q 609 -303 582 -298 q 556 -292 529 -283 q 502 -274 476 -264 q 450 -254 429 -245 q 405 -234 372 -218 q 340 -203 304 -186 q 225 -220 136 -220 q 120 -220 102 -218 q 84 -216 70 -209 q 55 -202 46 -189 q 36 -176 36 -155 q 36 -140 44 -130 q 52 -119 64 -113 q 77 -107 92 -104 q 106 -101 118 -101 q 120 -101 123 -102 q 126 -102 129 -102 q 170 -107 208 -121 q 245 -135 283 -152 q 288 -154 293 -156 q 298 -159 303 -161 q 379 -127 440 -66 q 501 -6 544 70 q 586 145 609 229 q 632 313 632 395 q 632 432 625 471 q 618 510 601 542 q 584 573 554 593 q 525 613 480 613 q 423 613 372 587 q 321 561 278 520 q 234 480 200 430 q 166 380 145 333 q 120 278 106 218 q 92 158 92 97 q 92 63 100 30 q 108 -3 126 -28 q 143 -54 170 -70 q 198 -85 237 -85 q 273 -85 306 -70 q 339 -54 367 -32 q 455 40 497 142 q 539 244 539 356 q 539 396 532 432 q 525 469 514 507 l 514 509 q 514 521 524 521 q 533 521 536 513 q 550 477 556 436 q 562 394 562 356 q 562 301 552 246 q 541 191 521 139 q 505 97 476 53 q 447 9 408 -27 q 370 -63 324 -86 q 279 -109 231 -109 q 189 -109 158 -90 q 128 -72 108 -42 q 88 -13 78 24 q 68 60 68 97 q 68 172 92 254 q 116 337 160 410 q 204 484 265 542 q 326 599 401 624 q 421 631 442 634 q 463 637 483 637 q 532 637 565 614 q 598 592 618 557 q 638 522 646 480 q 655 437 655 396 q 655 313 632 228 q 610 142 568 66 q 526 -11 466 -74 q 405 -137 330 -174 q 366 -191 406 -210 q 445 -228 485 -244 q 525 -259 564 -269 q 603 -279 636 -279 z m 274 -173 q 229 -153 187 -139 q 145 -125 115 -125 q 109 -125 100 -126 q 90 -128 81 -132 q 72 -135 66 -140 q 60 -146 60 -155 q 60 -170 68 -178 q 76 -187 88 -191 q 99 -195 112 -196 q 125 -197 136 -197 q 210 -197 274 -173 z"},"w":{"x_min":0,"x_max":323,"ha":323,"o":"m -4 72 q -4 87 1 110 q 6 132 14 155 q 21 178 30 198 q 39 219 47 230 q 53 236 57 236 q 62 236 66 232 q 69 229 69 224 q 69 222 67 218 q 59 203 50 184 q 42 165 35 145 q 28 125 24 105 q 19 85 19 68 q 19 64 20 63 q 54 101 82 143 q 90 153 96 163 q 103 173 111 182 q 114 187 121 187 q 127 187 130 182 q 133 178 133 173 q 133 143 128 114 q 123 84 123 54 q 123 51 123 48 q 123 44 124 41 q 132 43 140 50 q 147 57 152 62 q 166 77 180 100 q 193 122 206 147 q 197 167 197 188 q 197 197 200 210 q 202 222 208 234 q 213 245 222 254 q 230 262 241 262 q 250 262 256 258 q 263 254 263 243 q 263 229 254 203 q 246 177 232 148 q 244 134 261 134 q 277 134 291 140 q 305 147 316 155 q 327 163 334 170 q 342 176 346 176 q 351 176 354 172 q 358 169 358 164 q 358 158 350 151 q 343 144 332 137 q 322 130 312 125 q 301 120 296 118 q 287 115 278 113 q 269 111 259 111 q 238 111 221 126 q 210 105 198 86 q 185 66 172 51 q 159 36 146 27 q 133 18 121 18 q 107 18 104 30 q 100 43 100 54 q 100 75 102 96 q 105 117 107 138 q 103 132 92 116 q 80 99 66 82 q 53 65 40 52 q 28 39 22 39 q 5 39 0 48 q -4 58 -4 72 z m 221 179 q 228 196 233 211 q 238 226 240 239 q 228 232 224 212 q 221 192 221 179 z"},"-":{"x_min":0,"x_max":386,"ha":386,"o":"m 311 204 l 276 204 l 204 206 l 169 206 q 162 206 151 206 q 140 206 129 206 q 118 206 108 206 q 98 207 91 208 q 80 208 80 219 q 80 224 83 228 q 86 231 91 231 q 129 231 166 230 q 202 229 240 228 q 255 228 276 228 q 297 229 311 227 q 316 226 320 223 q 323 220 323 215 q 323 210 320 207 q 316 204 311 204 z"},"E":{"x_min":0,"x_max":548,"ha":548,"o":"m 458 426 q 458 443 469 472 q 480 502 496 534 q 484 563 460 582 q 437 601 402 601 q 370 601 342 584 q 314 567 294 540 q 273 514 262 482 q 250 451 250 421 q 250 393 262 363 q 275 333 297 313 q 311 317 324 320 q 336 322 350 323 l 353 324 q 369 324 384 316 q 399 307 399 289 q 399 273 390 268 q 381 263 367 263 q 324 263 291 288 q 242 271 196 236 q 150 201 114 156 q 78 111 56 59 q 35 7 35 -46 q 35 -105 67 -132 q 99 -160 156 -160 q 205 -160 254 -138 q 302 -115 347 -80 q 392 -46 430 -5 q 468 36 496 72 q 513 95 528 118 q 543 142 559 165 q 562 170 568 170 q 580 170 580 160 q 580 155 579 153 q 558 118 530 80 q 502 41 469 4 q 436 -34 399 -68 q 362 -102 321 -128 q 280 -154 237 -169 q 194 -184 149 -184 q 80 -184 46 -144 q 11 -104 11 -39 q 11 12 33 65 q 55 118 91 165 q 127 212 174 249 q 222 286 273 305 q 251 328 239 358 q 227 389 227 421 q 227 457 240 493 q 254 529 278 558 q 302 588 334 606 q 367 625 405 625 q 438 625 465 606 q 492 588 509 561 q 512 566 520 580 q 528 595 538 611 q 548 627 558 639 q 567 651 573 651 q 578 651 582 648 q 585 644 585 639 q 585 637 584 636 q 583 634 582 632 q 571 617 554 590 q 537 563 521 534 q 532 501 532 469 q 532 459 530 446 q 527 434 522 423 q 516 412 507 405 q 498 398 485 398 q 472 398 465 406 q 458 414 458 426 z m 505 502 q 494 479 488 460 q 481 440 481 426 q 481 421 485 421 q 492 421 496 427 q 501 433 504 442 q 506 450 507 458 q 508 467 508 472 q 508 487 505 502 z m 376 288 q 376 296 366 298 q 357 300 351 300 q 336 300 321 297 q 325 295 328 294 q 331 292 335 291 q 343 288 352 287 q 361 286 370 286 q 374 286 376 287 z"},"s":{"x_min":0,"x_max":204,"ha":204,"o":"m 139 235 q 141 238 144 244 q 146 251 150 258 q 153 264 157 268 q 161 273 165 273 q 177 273 177 263 q 177 260 172 248 q 166 236 158 222 q 151 209 144 197 q 137 185 135 182 q 130 177 126 177 q 113 177 113 188 q 113 194 117 200 q 121 205 121 213 q 121 222 116 230 q 110 237 100 237 q 88 237 78 228 q 68 219 60 206 q 53 193 48 178 q 44 164 44 154 q 44 135 50 118 q 55 102 63 87 q 105 111 144 130 q 183 149 202 160 q 207 163 215 170 q 223 176 228 176 q 233 176 236 172 q 240 169 240 164 q 240 159 236 156 q 233 152 229 150 q 221 144 217 142 q 208 138 193 130 q 178 122 158 112 q 139 103 117 91 q 95 79 73 67 q 82 50 90 32 q 97 15 97 -5 q 97 -23 88 -38 q 78 -52 64 -62 q 50 -72 32 -77 q 15 -82 -2 -82 q -25 -82 -44 -69 q -64 -56 -64 -30 q -64 -5 -32 22 q -1 50 42 76 q 33 94 26 114 q 20 134 20 157 q 20 172 26 190 q 33 209 44 224 q 55 240 70 250 q 85 261 102 261 q 113 261 124 254 q 134 246 139 235 z m 53 55 q 15 32 -13 8 q -41 -15 -41 -32 q -41 -48 -27 -54 q -13 -59 0 -59 q 13 -59 26 -56 q 39 -52 50 -44 q 60 -37 66 -26 q 73 -15 73 0 q 73 13 67 26 q 61 40 53 55 z"},">":{"x_min":0,"x_max":473,"ha":473,"o":"m 133 366 q 139 366 142 363 q 177 334 216 307 q 254 280 286 248 q 289 246 292 243 q 294 240 296 238 q 303 230 308 222 q 313 213 313 202 q 313 194 307 186 q 301 178 292 172 q 284 165 274 160 q 265 155 258 152 q 218 135 177 120 q 136 104 96 85 q 95 84 92 84 q 80 84 80 94 q 80 102 86 105 q 98 113 131 126 q 164 138 200 152 q 235 167 262 180 q 289 194 289 204 q 289 213 276 226 q 264 239 246 254 q 228 269 206 284 q 184 300 166 314 q 148 328 136 338 q 123 349 123 354 q 123 366 133 366 z"},"l":{"x_min":0,"x_max":179,"ha":179,"o":"m 266 495 q 266 483 261 470 q 256 458 251 447 q 236 416 215 383 q 194 350 170 318 q 146 287 120 259 q 93 231 66 208 q 63 206 55 200 q 43 162 36 127 q 29 92 29 66 q 29 63 29 57 q 29 51 30 46 q 32 40 34 36 q 37 32 42 32 q 60 32 82 49 q 105 66 128 88 q 150 111 170 135 q 189 159 200 172 q 203 177 209 177 q 214 177 218 174 q 221 170 221 165 q 221 161 218 158 q 208 142 186 117 q 165 92 140 68 q 114 44 88 26 q 63 9 43 9 q 30 9 22 16 q 14 22 10 32 q 7 41 6 52 q 5 64 5 74 l 6 83 l 6 87 q 14 146 33 208 q 33 211 34 212 q 57 287 92 359 q 128 431 170 484 q 181 498 200 513 q 218 528 236 528 q 250 528 258 518 q 266 508 266 495 z m 69 242 q 82 253 100 272 q 118 291 137 314 q 156 338 175 364 q 194 391 209 416 q 224 440 233 461 q 242 482 242 495 q 242 497 242 501 q 241 505 237 505 q 228 505 218 498 q 209 492 204 486 q 187 470 169 444 q 151 417 133 384 q 115 352 99 316 q 83 279 69 242 z"},"8":{"x_min":0,"x_max":2103,"ha":2103,"o":"m 47 319 q 47 383 58 430 q 69 477 96 508 q 122 539 166 554 q 211 569 278 569 q 345 569 389 554 q 433 539 460 508 q 486 477 497 430 q 508 383 508 319 q 508 256 497 208 q 486 161 460 130 q 433 99 389 84 q 345 68 278 68 q 211 68 166 84 q 122 99 96 130 q 69 161 58 208 q 47 256 47 319 z m 79 319 q 79 262 87 220 q 95 177 117 148 q 139 120 178 106 q 217 92 278 92 q 339 92 378 106 q 416 120 438 148 q 460 177 468 220 q 476 262 476 319 q 476 376 468 418 q 460 460 438 488 q 416 517 378 531 q 339 545 278 545 q 217 545 178 531 q 140 517 118 488 q 96 460 88 418 q 79 376 79 319 z m 2007 318 q 2007 238 1962 192 q 1918 146 1837 146 q 1756 146 1712 192 q 1667 238 1667 318 q 1667 398 1712 444 q 1756 490 1837 490 q 1917 490 1962 444 q 2007 398 2007 318 z m 293 256 l 293 298 l 291 303 l 187 409 l 187 208 q 187 205 188 198 q 188 191 193 191 l 137 191 q 142 191 142 198 q 143 205 143 208 l 143 453 q 143 457 142 462 q 142 468 137 470 l 193 470 l 191 468 q 191 453 203 441 l 290 353 l 291 352 q 293 352 293 353 l 293 469 q 293 472 292 478 q 292 485 287 486 l 346 486 q 337 482 337 469 l 337 256 z m 218 433 q 219 447 219 458 q 219 468 218 476 q 217 484 212 486 l 268 486 q 263 484 262 469 q 260 454 260 436 q 260 419 261 404 q 262 390 262 389 z m 880 317 q 880 257 846 214 q 813 171 753 158 q 736 154 718 154 q 701 153 684 153 l 568 153 l 568 483 l 687 483 q 728 483 763 474 q 798 465 824 445 q 850 425 865 394 q 880 362 880 317 z m 945 153 l 945 483 l 1184 483 l 1184 419 l 1030 419 l 1030 362 l 1173 362 l 1173 299 l 1030 299 l 1030 217 l 1184 217 l 1184 153 z m 1517 153 l 1517 374 l 1456 230 l 1397 230 l 1335 374 l 1335 153 l 1255 153 l 1255 483 l 1354 483 l 1428 317 l 1503 483 l 1602 483 l 1602 153 z m 212 151 q 216 153 217 158 q 218 163 218 168 l 218 370 l 262 325 q 262 321 262 310 q 261 299 261 287 q 261 275 262 265 q 263 255 265 252 l 273 251 l 355 251 l 365 252 q 368 255 368 260 l 368 441 q 368 446 368 451 q 367 456 362 458 l 418 458 q 414 456 413 451 q 412 446 412 441 l 412 184 q 412 181 412 174 q 413 167 418 167 l 362 167 q 367 167 368 174 q 368 181 368 184 q 368 189 369 202 q 370 215 365 220 l 265 220 q 262 216 262 211 l 262 168 q 262 163 262 158 q 263 153 268 151 z m 1837 208 q 1860 208 1876 218 q 1892 227 1902 243 q 1911 259 1915 278 q 1919 298 1919 318 q 1919 338 1915 358 q 1911 377 1902 393 q 1892 409 1876 418 q 1860 428 1837 428 q 1814 428 1798 418 q 1782 409 1772 393 q 1763 377 1759 358 q 1755 338 1755 318 q 1755 298 1759 278 q 1763 259 1772 243 q 1782 227 1798 218 q 1814 208 1837 208 z m 792 319 q 792 348 784 368 q 775 387 760 399 q 744 411 722 416 q 701 421 674 421 l 653 421 l 653 215 l 674 215 q 730 215 761 238 q 792 260 792 319 z m 337 215 q 337 213 336 206 q 336 199 336 191 q 336 183 338 176 q 339 169 343 167 l 287 167 q 291 168 292 176 q 294 183 294 192 q 294 200 294 208 q 293 215 293 215 z"},"\\":{"x_min":0,"x_max":409,"ha":409,"o":"m 371 -43 q 371 -48 368 -52 q 365 -55 360 -55 q 354 -55 350 -48 q 335 -19 322 10 q 310 40 296 69 q 233 205 168 338 q 103 470 35 604 q 34 606 34 610 q 34 620 46 620 q 52 620 55 614 q 62 602 80 568 q 97 535 120 488 q 144 440 172 383 q 199 326 227 268 q 255 210 281 156 q 307 101 327 58 q 347 15 359 -12 q 371 -40 371 -43 z"},"e":{"x_min":0,"x_max":166,"ha":166,"o":"m 25 118 q 25 101 31 93 q 37 85 56 85 q 72 85 94 99 q 115 113 136 130 q 156 147 171 161 q 186 175 190 175 q 202 175 202 165 q 202 158 188 145 q 175 132 157 118 q 139 103 122 91 q 105 79 98 75 q 87 69 76 65 q 64 61 52 61 q 29 61 15 76 q 1 90 1 113 q 1 128 8 146 q 14 165 25 181 q 36 197 51 208 q 66 218 83 218 q 95 218 104 210 q 112 203 112 191 q 112 177 103 164 q 94 151 81 140 q 68 130 53 124 q 38 118 25 118 z m 34 143 l 37 144 q 44 146 53 151 q 62 156 70 162 q 77 168 82 176 q 88 183 88 191 q 88 194 83 194 q 66 194 53 178 q 40 162 34 143 z"},"b":{"x_min":0,"x_max":281,"ha":281,"o":"m 261 520 q 278 520 284 508 q 291 495 291 481 q 291 454 268 422 q 244 391 212 361 q 179 331 145 306 q 111 280 89 266 q 68 223 51 182 q 34 140 23 105 q 32 120 48 146 q 63 173 82 198 q 102 224 124 242 q 145 261 164 261 q 189 261 200 240 q 211 219 211 198 q 211 170 202 142 q 192 113 175 87 q 210 104 242 124 q 273 145 302 173 q 305 176 309 176 q 321 176 321 166 q 321 158 314 152 q 307 145 302 141 q 269 110 226 87 q 183 64 141 45 q 122 26 96 10 q 69 -6 41 -6 q 34 -6 28 -4 q 23 -2 23 6 q 23 13 28 16 q 32 20 37 23 q 51 31 66 38 q 82 44 98 51 q 102 52 106 55 l 121 61 q 123 63 124 64 q 126 64 128 65 q 154 92 171 127 q 188 162 188 197 q 188 208 183 222 q 178 237 164 237 q 148 237 127 214 q 106 192 86 162 q 65 132 48 103 q 31 74 24 61 q 18 50 12 38 q 6 26 -1 15 q -4 10 -11 10 q -16 10 -20 13 q -23 16 -23 21 l -22 23 q -13 75 11 142 q 35 208 67 274 q 99 341 137 400 q 175 459 213 495 q 222 503 235 512 q 248 520 261 520 z m 112 309 q 114 311 114 311 l 119 314 q 121 316 121 316 q 137 328 162 348 q 186 367 210 390 q 233 414 250 438 q 267 462 267 483 q 267 486 266 491 q 266 496 261 496 q 245 496 222 471 q 199 446 176 414 q 154 382 136 352 q 118 321 112 309 z"},"%":{"x_min":0,"x_max":493,"ha":493,"o":"m 140 298 q 114 298 106 318 q 97 339 97 360 q 97 374 100 392 q 104 409 110 427 q 117 445 126 461 q 134 477 144 487 q 148 490 154 494 q 160 499 165 499 q 170 499 174 496 q 177 492 177 487 q 177 483 175 481 q 173 479 171 477 q 159 468 150 454 q 140 440 134 424 q 127 407 124 390 q 121 372 121 357 q 121 347 124 334 q 126 321 140 321 q 154 321 165 336 q 176 352 184 372 q 192 393 196 414 q 200 435 200 446 q 200 454 199 458 q 186 458 182 463 q 179 468 179 480 q 179 487 182 492 q 184 498 192 498 q 200 498 206 494 q 212 489 216 482 q 236 483 260 486 q 285 488 310 492 q 335 495 356 500 q 378 504 391 510 q 393 511 396 512 q 398 513 400 513 q 408 513 412 508 q 416 502 416 495 q 416 482 400 451 q 383 420 358 380 q 332 339 301 294 q 270 250 240 210 q 211 169 188 137 q 165 105 154 91 q 138 69 123 48 q 108 26 91 6 q 88 2 83 2 q 71 2 71 12 q 71 18 73 20 l 124 89 q 129 95 133 100 q 137 106 141 112 q 177 160 212 208 q 247 257 281 307 q 295 327 310 349 q 326 371 340 394 q 355 416 368 440 q 380 463 389 485 q 377 480 356 476 q 336 472 313 468 q 290 465 266 462 q 242 460 223 459 q 224 454 224 450 q 224 447 224 443 q 224 438 222 428 q 219 412 214 390 q 208 368 198 348 q 189 327 174 312 q 160 298 140 298 z m 340 198 q 370 198 381 178 q 392 159 392 133 q 392 116 386 95 q 381 74 370 56 q 359 38 344 26 q 328 13 308 13 q 280 13 269 35 q 258 57 258 81 q 258 96 264 116 q 270 137 281 155 q 292 173 307 186 q 322 198 340 198 z m 341 175 q 328 175 317 164 q 306 153 298 138 q 291 122 286 106 q 282 89 282 78 q 282 63 288 50 q 293 37 311 37 q 325 37 336 48 q 346 60 353 76 q 360 91 364 108 q 368 125 368 136 q 368 150 363 162 q 358 175 341 175 z"},"m":{"x_min":0,"x_max":482,"ha":482,"o":"m -22 1 q -11 58 7 113 q 25 168 45 222 q 53 244 60 266 q 68 289 78 310 q 82 318 89 318 q 94 318 98 314 q 101 310 101 305 l 100 303 q 81 250 62 200 q 43 149 26 96 q 38 119 58 158 q 79 196 102 236 q 126 275 150 310 q 173 344 191 359 q 202 368 212 374 q 222 380 236 380 q 247 380 254 374 q 261 369 264 361 q 268 353 270 343 q 271 333 271 325 q 271 318 270 315 q 265 273 254 233 q 243 193 230 154 q 225 140 221 126 q 217 111 213 96 q 222 107 238 126 q 253 144 271 162 q 289 180 307 194 q 325 207 339 207 q 356 207 360 190 q 363 172 364 151 q 365 130 368 112 q 371 95 386 95 q 401 95 420 108 q 438 120 455 134 q 472 149 485 162 q 498 174 503 174 q 515 174 515 164 q 515 158 502 146 q 489 133 472 120 q 456 106 440 94 q 424 83 418 80 q 402 71 383 71 q 362 71 354 86 q 346 100 344 119 q 342 138 342 156 q 342 175 337 183 q 325 183 304 162 q 284 142 262 118 q 241 94 223 74 q 205 53 199 53 q 191 53 188 58 q 185 64 185 70 q 185 80 188 90 q 194 116 204 146 q 214 177 224 208 q 234 239 241 270 q 248 300 248 326 q 248 334 246 345 q 245 356 234 356 q 222 356 204 338 q 186 319 166 290 q 145 262 124 228 q 104 193 86 160 q 68 128 54 102 q 41 75 35 64 q 26 47 18 28 q 9 10 -1 -7 q -5 -13 -11 -13 q -16 -13 -20 -10 q -23 -6 -23 -1 z"},"#":{"x_min":0,"x_max":606,"ha":606,"o":"m 112 27 q 111 35 122 70 q 134 105 151 154 l 146 154 l 134 153 l 129 153 q 107 151 85 150 q 63 148 42 148 q 31 148 29 158 q 29 170 39 170 q 53 172 68 172 q 84 173 98 174 l 160 178 q 171 207 182 238 q 194 269 206 300 q 174 299 144 298 q 113 298 81 298 q 71 298 69 309 q 69 319 80 321 q 94 322 108 322 q 122 321 136 321 q 156 322 176 322 q 195 323 215 324 q 227 355 238 384 q 250 412 260 434 q 270 457 277 472 q 284 487 288 493 q 292 499 298 499 q 303 499 306 496 q 310 492 310 487 q 310 485 308 481 q 291 449 278 416 q 265 383 251 350 q 249 346 249 343 l 243 331 q 243 328 241 324 q 312 327 382 333 q 401 378 422 420 q 442 461 466 499 q 468 504 474 504 q 487 504 487 494 q 487 489 486 487 q 444 412 410 335 q 436 337 462 340 q 489 342 515 345 l 516 345 q 528 345 528 335 q 529 325 520 323 q 509 321 498 320 q 488 319 477 318 q 472 318 468 318 q 463 317 458 316 l 419 313 q 414 312 410 312 q 405 312 400 311 q 387 281 376 251 q 364 221 353 189 l 354 189 q 387 191 421 192 q 455 193 488 193 q 500 193 500 183 q 502 171 491 171 q 473 169 454 169 q 436 169 418 168 q 400 167 382 166 q 363 165 344 163 l 344 160 q 334 128 325 98 q 316 67 307 37 q 302 19 298 2 q 293 -16 288 -33 q 285 -41 278 -41 q 270 -41 268 -38 q 266 -34 266 -27 q 278 19 292 67 q 305 115 321 164 q 315 164 313 163 l 295 163 q 293 162 287 162 q 259 160 232 159 q 205 158 178 156 q 176 152 176 149 l 170 137 q 170 134 168 130 q 161 109 154 88 q 146 68 140 47 q 138 42 137 34 q 136 27 133 22 q 130 17 124 17 q 112 17 112 27 z m 213 181 q 221 181 225 182 l 248 182 q 252 183 260 183 l 328 187 q 338 218 349 248 q 360 279 372 309 q 337 307 302 305 q 267 303 232 301 q 220 271 208 240 q 197 209 186 179 z"},",":{"x_min":0,"x_max":183,"ha":183,"o":"m 24 -16 q 24 -10 28 -8 q 31 -6 36 -4 q 41 -3 47 0 q 53 2 59 8 q 74 24 78 44 q 82 65 86 86 q 86 96 96 96 q 108 96 108 86 q 108 71 104 52 q 100 32 91 14 q 82 -3 69 -16 q 56 -28 38 -28 q 33 -28 28 -26 q 24 -23 24 -16 z"},"n":{"x_min":0,"x_max":295,"ha":295,"o":"m -31 11 q -21 65 0 117 q 20 169 43 220 q 48 232 53 244 q 58 257 64 268 q 68 275 74 275 q 86 275 86 265 q 86 264 81 252 q 76 241 69 224 q 62 206 53 185 q 44 164 36 145 q 28 126 22 111 q 16 96 14 91 q 21 102 33 122 q 45 141 60 164 q 76 186 93 210 q 110 233 128 252 q 145 270 162 282 q 178 294 192 294 q 206 294 212 281 q 219 268 219 257 q 219 238 211 214 q 203 191 194 166 q 184 142 176 118 q 168 93 168 71 q 168 67 169 64 q 170 60 175 60 q 190 60 210 74 q 230 87 250 105 q 269 123 286 142 q 304 160 315 171 q 318 174 322 174 q 334 174 334 164 q 334 160 331 155 q 321 142 302 122 q 282 102 260 83 q 237 64 214 50 q 192 37 175 37 q 158 37 152 48 q 145 59 145 74 q 145 88 150 105 q 153 119 160 140 q 168 161 176 184 q 183 206 189 226 q 195 247 195 259 q 195 261 194 266 q 194 270 190 270 q 180 270 164 256 q 149 242 132 221 q 114 200 96 174 q 78 147 62 123 q 46 99 34 79 q 22 59 17 50 q 10 39 4 26 q -2 14 -10 3 q -14 -3 -20 -3 q -25 -3 -28 0 q -32 4 -32 9 z"},"h":{"x_min":0,"x_max":274,"ha":274,"o":"m 303 515 q 303 487 278 451 q 252 415 216 380 q 181 345 144 316 q 107 286 84 270 q 61 223 42 178 q 23 132 10 93 q 21 111 38 138 q 55 164 76 189 q 96 214 119 232 q 142 250 165 250 q 178 250 186 244 q 195 238 200 229 q 205 220 207 209 q 209 198 209 187 q 209 180 209 174 q 209 167 208 160 l 206 142 q 205 135 205 128 q 205 122 205 115 q 205 112 205 102 q 205 91 210 91 q 219 91 231 101 q 243 111 254 124 q 266 138 276 152 q 286 165 292 172 q 295 177 301 177 q 306 177 310 174 q 313 170 313 165 q 313 161 310 158 q 304 148 292 133 q 280 118 266 104 q 253 89 238 78 q 223 68 211 68 q 201 68 195 73 q 189 78 186 86 q 183 93 182 102 q 182 111 182 119 q 182 136 184 152 q 186 169 186 186 q 186 197 182 212 q 179 227 165 227 q 147 227 125 206 q 103 186 82 158 q 61 131 44 104 q 26 76 17 62 q 10 51 4 38 q -2 26 -10 15 q -13 10 -20 10 q -25 10 -28 13 q -32 16 -32 21 l -31 23 q -21 77 4 144 q 29 210 63 279 q 63 282 66 285 q 72 297 86 322 q 99 346 116 376 q 134 405 154 436 q 175 467 196 492 q 217 518 238 534 q 258 551 274 551 q 289 551 296 540 q 303 529 303 515 z m 108 316 q 109 317 110 317 l 113 320 q 128 332 156 356 q 184 380 212 408 q 239 436 260 464 q 280 493 280 514 q 280 517 280 522 q 279 527 274 527 q 263 527 248 514 q 232 500 215 480 q 198 459 181 434 q 164 409 149 386 q 134 362 124 343 q 113 324 108 316 z"},"z":{"x_min":0,"x_max":254,"ha":254,"o":"m 142 232 q 126 232 108 220 q 89 208 72 193 q 56 178 44 166 q 31 154 26 154 q 14 154 14 164 q 14 172 26 184 q 38 197 54 210 q 71 223 88 234 q 105 246 115 250 q 129 256 145 256 q 162 256 172 244 q 182 233 182 216 q 182 203 176 188 q 169 172 160 157 q 150 142 138 130 q 127 117 116 110 q 130 103 138 92 q 146 82 150 68 q 152 70 154 70 l 160 76 q 162 76 164 78 q 195 101 219 121 q 243 141 268 171 q 271 176 277 176 q 282 176 286 172 q 289 169 289 164 q 289 159 286 154 q 282 150 279 147 q 255 118 224 94 q 194 70 162 49 q 160 47 154 43 q 154 3 136 -46 q 117 -94 86 -135 q 55 -176 16 -204 q -24 -232 -66 -232 q -92 -232 -114 -215 q -135 -198 -135 -170 q -135 -156 -126 -143 q -118 -130 -109 -121 q -59 -70 5 -28 q 69 13 130 54 q 126 75 115 82 q 104 90 85 95 q 76 97 76 105 q 76 113 82 116 q 94 124 108 135 q 122 146 133 159 q 144 172 152 187 q 159 202 159 218 q 159 232 142 232 z m 131 28 q 102 9 60 -19 q 19 -47 -19 -76 q -57 -104 -84 -130 q -111 -155 -111 -170 q -111 -190 -96 -199 q -81 -208 -64 -208 q -30 -208 4 -184 q 38 -159 65 -123 q 92 -87 110 -46 q 128 -5 131 28 z"},"B":{"x_min":0,"x_max":704,"ha":704,"o":"m 120 543 q 120 569 132 594 q 143 620 162 640 q 181 659 206 671 q 230 683 256 683 q 264 683 276 680 q 288 677 299 671 q 310 665 318 657 q 327 649 327 640 q 327 628 317 628 q 311 628 308 633 q 304 638 298 644 q 292 649 282 654 q 272 659 253 659 q 231 659 211 648 q 191 638 176 620 q 161 603 152 582 q 144 560 144 539 q 144 506 164 486 q 183 467 216 467 q 239 467 262 474 q 286 482 310 494 q 333 505 354 520 q 375 534 391 547 q 400 565 409 583 q 418 601 429 618 q 432 623 438 630 q 443 638 451 638 q 459 638 462 632 q 466 627 466 620 q 466 598 450 576 q 434 553 410 533 q 395 500 378 462 q 361 424 345 388 q 329 352 316 322 q 304 292 296 277 q 309 295 332 323 q 354 351 382 384 q 410 416 441 448 q 472 481 504 507 q 535 533 565 550 q 595 566 619 566 q 637 566 648 555 q 658 544 658 527 q 658 512 647 489 q 636 466 619 442 q 602 418 580 396 q 559 373 539 359 q 560 350 575 334 q 590 319 600 299 q 622 310 644 320 q 665 329 686 337 l 688 338 q 693 338 697 334 q 701 331 701 326 q 701 319 693 315 q 685 311 680 309 l 653 299 q 649 297 639 293 l 609 278 q 613 266 614 253 q 616 240 616 226 q 616 186 598 136 q 579 87 548 36 q 517 -14 476 -62 q 435 -109 390 -146 q 344 -183 298 -206 q 251 -228 208 -228 q 192 -228 176 -223 q 160 -218 147 -208 q 134 -198 126 -184 q 117 -170 117 -153 q 117 -134 130 -110 q 143 -85 154 -70 q 189 -24 238 26 q 286 76 342 124 q 399 171 460 214 q 521 256 580 288 q 559 332 508 343 q 504 342 498 342 q 491 342 483 346 q 475 350 475 358 q 475 363 478 366 q 481 370 486 370 q 492 370 498 370 q 504 369 509 368 q 524 374 546 394 q 567 414 586 438 q 606 462 620 487 q 634 512 634 529 q 634 537 629 540 q 624 542 617 542 q 593 542 560 520 q 527 499 491 465 q 455 431 418 389 q 382 347 349 306 q 316 266 290 232 q 264 197 250 178 q 232 154 215 129 q 198 104 179 80 q 176 76 171 76 q 159 76 159 86 q 159 91 168 104 q 176 118 187 134 q 198 149 208 164 q 218 178 222 184 q 230 195 236 207 q 242 219 249 232 q 281 295 308 358 q 335 422 364 487 l 371 503 q 336 480 296 462 q 255 443 212 443 q 169 443 144 472 q 120 501 120 543 z m 588 267 q 534 235 474 194 q 415 153 358 106 q 301 60 252 10 q 202 -40 168 -91 q 160 -104 150 -122 q 141 -140 141 -155 q 141 -168 148 -178 q 155 -187 166 -193 q 177 -199 190 -202 q 202 -204 213 -204 q 241 -204 270 -192 q 299 -180 323 -166 q 365 -139 412 -94 q 460 -48 500 6 q 540 61 566 120 q 592 178 592 230 q 592 252 588 267 z"},"K":{"x_min":0,"x_max":455,"ha":455,"o":"m 56 543 q 56 569 68 594 q 79 620 98 640 q 117 659 142 671 q 166 683 192 683 q 200 683 212 680 q 224 677 235 672 q 246 666 254 658 q 263 650 263 640 q 263 628 253 628 q 247 628 244 633 q 240 638 234 644 q 228 649 218 654 q 208 659 189 659 q 167 659 147 648 q 127 638 112 620 q 97 603 88 582 q 80 560 80 539 q 80 506 100 486 q 119 467 152 467 q 193 467 238 483 q 282 499 318 525 q 337 565 357 599 q 362 607 369 616 q 376 626 386 626 q 396 626 399 618 q 402 610 402 602 q 402 589 395 576 q 388 562 378 550 q 368 537 356 526 q 345 516 336 509 q 300 432 266 355 q 233 278 201 200 q 252 223 318 266 q 383 310 448 363 q 514 416 572 473 q 629 530 665 579 q 672 588 678 598 q 684 607 691 617 q 694 622 700 622 q 712 622 712 612 q 712 607 711 605 q 689 570 654 530 q 620 489 578 448 q 536 406 488 366 q 441 325 394 290 q 346 254 300 226 q 255 198 217 182 q 245 156 270 120 q 296 83 321 42 q 346 0 370 -43 q 395 -86 421 -124 q 447 -162 475 -193 q 503 -224 534 -241 q 551 -249 566 -252 q 581 -256 598 -260 q 609 -262 609 -271 q 609 -276 606 -280 q 602 -283 597 -283 q 582 -283 565 -278 q 548 -273 534 -266 q 497 -249 466 -216 q 434 -183 406 -142 q 378 -102 352 -56 q 326 -10 300 32 q 275 75 248 112 q 222 149 193 172 l 189 170 q 187 166 186 162 q 184 159 182 155 l 170 124 q 168 120 166 116 q 165 113 163 109 q 124 15 82 -80 q 74 -97 66 -116 q 59 -134 50 -151 q 82 -150 113 -150 q 144 -149 175 -149 q 187 -149 187 -159 q 187 -169 177 -171 q 163 -173 142 -173 q 120 -173 106 -173 q 88 -173 70 -174 q 53 -174 35 -175 q 34 -176 30 -176 l 29 -175 q 11 -176 -7 -177 q -25 -178 -43 -179 l -44 -180 q -49 -180 -52 -176 q -56 -173 -56 -168 q -56 -159 -45 -157 q -31 -154 -12 -154 q 8 -153 24 -152 q 59 -74 93 4 q 127 82 160 161 q 146 157 132 154 q 118 152 105 152 q 86 152 73 160 q 60 169 60 189 q 60 200 66 207 q 72 214 81 218 q 90 223 100 225 q 110 227 118 227 q 150 227 181 210 q 205 270 230 328 q 256 386 282 444 l 300 486 q 263 466 223 454 q 183 443 149 443 q 105 443 80 472 q 56 501 56 543 z m 170 188 q 143 203 114 203 q 109 203 96 200 q 84 196 84 189 q 84 179 90 177 q 96 175 104 175 q 119 175 136 178 q 152 182 170 188 z"},"R":{"x_min":0,"x_max":665,"ha":665,"o":"m 132 543 q 132 569 144 594 q 155 620 174 640 q 193 659 218 671 q 242 683 268 683 q 286 683 305 674 q 324 666 335 651 q 336 649 338 646 q 339 642 339 640 q 339 628 329 628 q 323 628 320 633 q 316 638 310 644 q 304 649 294 654 q 284 659 265 659 q 243 659 223 648 q 203 638 188 620 q 173 603 164 582 q 156 560 156 539 q 156 506 176 486 q 195 467 228 467 q 249 467 274 475 q 300 483 326 496 q 351 508 374 524 q 398 541 416 558 q 423 576 430 594 q 438 611 449 627 q 455 638 464 638 q 473 638 476 630 q 478 623 478 616 q 478 599 466 580 q 454 561 436 544 q 397 446 359 348 q 321 251 283 152 l 283 151 q 294 174 314 216 q 334 257 360 306 q 385 354 416 405 q 446 456 477 497 q 508 538 538 564 q 569 590 596 590 q 619 590 632 576 q 646 561 653 540 q 660 520 662 498 q 665 475 665 458 q 665 402 650 344 q 634 286 604 234 q 575 182 534 140 q 492 97 441 72 q 370 38 293 32 q 299 24 302 21 q 335 -16 374 -58 q 414 -100 459 -136 q 504 -171 554 -194 q 604 -218 657 -218 q 674 -218 690 -215 q 706 -212 723 -207 q 728 -207 732 -209 q 737 -211 737 -217 q 737 -225 726 -230 q 714 -235 700 -238 q 685 -240 670 -240 q 656 -241 650 -241 q 594 -241 540 -214 q 486 -187 436 -146 q 386 -105 342 -57 q 297 -9 261 33 l 254 33 q 237 -5 224 -34 q 211 -63 204 -79 l 158 -183 q 153 -193 149 -203 q 145 -213 140 -223 q 175 -222 208 -222 q 242 -221 276 -221 q 281 -221 284 -224 q 288 -227 288 -232 q 288 -237 284 -240 q 281 -243 276 -244 q 269 -245 258 -245 q 246 -245 234 -245 q 221 -245 210 -245 q 198 -245 189 -245 q 110 -247 32 -251 l 31 -252 q 26 -252 22 -248 q 19 -245 19 -240 q 19 -231 30 -229 q 46 -226 69 -226 q 92 -225 109 -224 q 113 -224 115 -225 q 118 -216 128 -192 q 137 -167 150 -132 q 164 -97 180 -54 q 197 -10 215 37 q 197 40 179 44 q 161 49 146 57 q 132 65 123 76 q 114 87 114 103 q 114 111 116 120 q 118 129 122 138 q 127 146 134 152 q 141 157 150 157 q 159 157 166 154 q 173 152 181 147 q 192 141 206 127 q 221 113 237 96 q 256 146 274 194 q 293 242 308 281 q 323 320 334 347 q 344 374 348 383 q 362 415 374 448 q 386 481 399 514 q 381 501 360 488 q 339 475 316 465 q 293 455 270 449 q 247 443 224 443 q 181 443 156 472 q 132 501 132 543 z m 272 56 q 314 56 354 64 q 394 73 431 93 q 480 118 519 158 q 558 198 586 246 q 613 295 628 350 q 642 404 642 458 q 642 469 640 487 q 639 505 634 522 q 630 540 620 553 q 611 566 596 566 q 575 566 548 542 q 522 519 492 479 q 463 439 433 388 q 403 336 374 280 q 344 224 316 168 q 289 111 267 62 z m 228 71 q 202 100 182 117 q 163 134 151 134 q 143 134 140 122 q 137 109 137 104 q 137 93 145 86 q 153 78 165 72 q 177 67 192 64 q 208 61 223 59 z"},"T":{"x_min":0,"x_max":522,"ha":522,"o":"m 196 396 q 208 396 214 400 q 221 403 226 406 q 230 410 233 414 q 236 417 240 417 q 252 417 252 407 q 252 400 246 394 q 235 382 222 377 q 209 372 194 372 q 172 372 156 382 q 139 392 128 408 q 117 424 112 444 q 106 464 106 483 q 106 506 114 528 q 123 549 138 568 q 153 586 172 600 q 192 613 213 620 q 230 625 248 628 q 267 632 285 632 q 293 632 300 631 q 308 630 316 629 q 360 622 402 612 q 445 602 488 592 q 531 582 574 575 q 618 568 663 568 q 718 568 763 580 q 808 593 853 626 q 855 627 856 628 q 858 629 860 629 q 865 629 868 626 q 872 622 872 617 q 872 611 867 607 q 862 603 857 600 q 813 568 764 556 q 716 545 663 545 q 632 545 602 548 q 572 552 542 557 q 507 479 478 396 q 456 336 433 272 q 410 207 382 144 q 355 81 321 22 q 287 -36 243 -83 q 234 -92 220 -104 q 206 -115 190 -125 q 174 -135 158 -142 q 141 -148 127 -148 q 115 -148 115 -138 q 115 -129 124 -126 q 144 -119 160 -113 q 177 -107 194 -94 q 237 -63 273 -10 q 309 44 338 106 q 368 168 392 230 q 416 293 434 342 q 450 387 466 431 q 482 475 500 519 q 505 530 509 540 q 513 550 518 561 q 495 566 472 572 q 448 577 425 582 q 390 591 354 600 q 318 608 281 608 q 253 608 226 599 q 199 590 178 574 q 156 557 143 533 q 130 509 130 479 q 130 464 134 450 q 138 435 146 423 q 155 411 168 404 q 180 396 196 396 z"},"P":{"x_min":0,"x_max":665,"ha":665,"o":"m 132 543 q 132 569 144 594 q 155 620 174 640 q 193 659 218 671 q 242 683 268 683 q 286 683 305 674 q 324 666 335 651 q 336 649 338 646 q 339 642 339 640 q 339 628 329 628 q 323 628 320 633 q 316 638 310 644 q 304 649 294 654 q 284 659 265 659 q 243 659 223 648 q 203 638 188 620 q 173 603 164 582 q 156 560 156 539 q 156 506 176 486 q 195 467 228 467 q 249 467 274 475 q 300 483 326 496 q 351 508 374 524 q 398 541 416 558 q 423 576 431 594 q 439 611 449 627 q 455 638 464 638 q 473 638 476 630 q 478 623 478 616 q 478 599 466 580 q 454 562 436 545 q 419 504 404 463 q 388 422 372 381 q 359 349 346 318 q 334 288 322 256 l 335 262 q 361 312 394 370 q 426 427 461 476 q 496 525 531 558 q 566 590 596 590 q 619 590 632 576 q 645 561 652 540 q 660 520 662 497 q 664 474 664 457 q 664 440 662 422 q 661 404 659 387 l 686 396 l 688 397 q 693 397 697 394 q 701 390 701 385 q 701 378 693 374 q 683 370 674 366 q 664 363 654 360 q 640 290 608 224 q 575 157 527 104 q 479 52 416 20 q 354 -12 279 -12 q 255 -12 231 -9 q 220 -32 212 -50 q 204 -68 199 -79 l 153 -183 q 148 -193 144 -203 q 140 -213 135 -223 q 174 -222 213 -222 q 252 -221 290 -221 q 302 -221 302 -231 q 302 -243 292 -243 q 284 -244 272 -244 q 259 -245 246 -245 q 232 -245 220 -245 q 207 -245 198 -245 q 149 -246 100 -247 q 51 -248 2 -251 l 1 -252 q -4 -252 -8 -248 q -11 -245 -11 -240 q -11 -231 0 -229 q 9 -227 22 -226 q 36 -225 50 -224 q 65 -224 79 -224 q 93 -224 103 -224 l 111 -224 q 114 -216 122 -194 q 130 -173 142 -143 q 154 -113 168 -76 q 183 -38 199 3 q 179 13 166 30 q 154 48 154 78 q 154 111 174 141 q 195 171 220 191 q 228 197 236 204 q 245 211 256 222 q 266 232 280 247 q 293 262 309 284 q 332 341 354 398 q 377 456 399 514 q 381 501 360 488 q 339 475 316 465 q 293 455 270 449 q 247 443 224 443 q 181 443 156 472 q 132 501 132 543 z m 371 279 q 436 308 504 334 q 572 359 634 379 q 641 417 641 458 q 641 469 640 487 q 638 505 634 522 q 629 540 620 553 q 611 566 596 566 q 575 566 548 542 q 521 518 492 478 q 463 439 432 387 q 401 335 371 279 z m 241 15 q 261 12 279 12 q 348 12 406 41 q 463 70 508 118 q 553 166 584 227 q 614 288 629 352 q 626 352 624 350 l 612 347 q 546 326 480 300 q 415 275 353 245 q 321 182 292 122 q 263 63 241 15 z m 286 163 q 291 174 300 191 q 308 208 318 228 q 317 228 317 228 q 317 227 316 227 l 311 224 q 310 224 309 223 l 303 208 l 292 178 z m 207 24 q 218 53 229 82 q 240 110 250 134 q 259 159 266 177 q 274 195 277 204 q 260 194 242 180 q 225 166 210 150 q 196 133 187 114 q 178 95 178 74 q 178 55 186 44 q 194 32 207 24 z"},"|":{"x_min":0,"x_max":257,"ha":257,"o":"m 79 -186 q 84 -107 93 -29 q 102 49 112 127 q 123 215 135 303 q 147 391 160 480 l 176 597 q 178 610 180 622 q 181 635 184 648 q 186 657 194 657 q 206 657 206 647 l 206 644 q 189 513 170 384 q 152 255 135 124 q 128 70 122 18 q 116 -35 110 -89 q 108 -112 106 -139 q 105 -166 101 -188 q 101 -199 90 -199 q 85 -199 82 -196 q 79 -192 79 -187 z"},"t":{"x_min":0,"x_max":136,"ha":136,"o":"m 13 -116 q 0 -116 -8 -108 q -15 -99 -18 -86 q -22 -74 -23 -60 q -24 -47 -24 -38 q -24 -4 -14 40 q -4 83 12 131 q 28 179 49 229 q 70 279 92 324 l -26 324 q -31 323 -34 326 q -38 330 -38 335 q -38 340 -34 343 q -31 346 -26 347 l 104 347 q 122 382 139 412 q 156 441 171 463 q 174 468 180 468 q 192 468 192 458 q 192 453 191 451 q 164 408 132 348 l 285 348 q 290 348 294 344 q 297 341 297 336 q 297 331 294 328 q 290 325 285 325 l 120 324 q 97 279 76 230 q 54 181 37 133 q 20 85 10 40 q 0 -5 0 -43 q 0 -52 2 -68 q 3 -84 10 -91 q 12 -93 18 -94 q 25 -95 25 -104 q 25 -109 22 -112 q 18 -116 13 -116 z"},"M":{"x_min":0,"x_max":748,"ha":748,"o":"m 46 265 q 34 265 34 275 q 34 285 44 287 q 57 289 68 292 q 78 294 90 299 q 122 313 158 342 q 193 372 225 410 q 245 458 265 506 q 285 555 314 597 q 321 607 332 618 q 342 628 355 628 q 361 628 366 623 q 370 618 370 612 q 370 596 362 580 q 347 545 316 495 q 285 445 245 398 q 242 390 239 384 q 236 378 234 373 q 186 263 143 153 q 100 43 60 -69 q 81 -34 108 13 q 135 60 166 112 q 197 164 230 217 q 264 270 298 318 q 332 367 365 406 q 398 446 427 470 q 436 478 448 484 q 460 490 472 490 q 482 490 488 484 q 493 478 496 469 q 499 460 500 450 q 501 440 501 433 q 501 408 496 377 q 490 346 482 314 q 474 282 465 251 q 456 220 448 195 q 459 218 479 258 q 499 297 525 344 q 551 390 581 438 q 611 485 643 524 q 675 563 706 588 q 738 612 767 612 q 789 612 798 596 q 807 580 807 561 q 807 541 800 512 q 792 483 781 452 q 770 422 758 394 q 747 365 739 345 q 718 291 694 230 q 670 170 650 108 q 631 45 618 -18 q 605 -80 605 -138 q 605 -161 608 -182 q 610 -203 615 -226 l 615 -227 q 615 -239 605 -239 q 595 -239 593 -230 q 587 -209 584 -185 q 582 -161 582 -138 q 582 -77 596 -11 q 610 55 631 121 q 652 187 677 250 q 702 314 724 371 q 731 389 742 414 q 752 440 762 467 q 771 494 778 520 q 784 546 784 564 q 784 575 780 582 q 776 588 764 588 q 739 588 708 560 q 678 533 646 490 q 614 446 582 392 q 549 337 520 284 q 492 231 469 184 q 446 137 432 108 q 425 95 420 82 q 414 69 406 57 q 404 55 402 52 q 399 50 396 50 q 391 50 388 53 q 384 56 384 61 q 384 65 385 67 q 396 102 412 151 q 427 200 442 252 q 457 303 468 352 q 478 401 478 434 q 478 436 478 442 q 478 447 478 452 q 477 458 475 462 q 473 466 470 466 q 461 466 451 458 q 441 451 434 446 q 396 414 366 373 q 337 332 309 291 q 263 224 220 156 q 178 87 136 17 q 109 -29 82 -78 q 56 -126 27 -170 q 21 -178 15 -178 q 10 -178 6 -175 q 3 -172 3 -167 q 3 -165 4 -164 q 4 -163 4 -162 q 46 -31 96 96 q 145 223 199 349 q 161 312 122 288 q 83 265 46 265 z m 279 480 q 301 511 318 541 q 334 571 344 597 q 330 583 313 550 q 296 518 279 480 z"},"g":{"x_min":0,"x_max":246,"ha":246,"o":"m 124 269 q 144 269 150 256 q 156 242 156 225 q 162 233 166 240 q 171 246 175 251 q 178 256 184 256 q 189 256 192 252 q 196 249 196 244 q 196 241 196 238 q 195 236 194 233 q 190 210 180 175 q 170 140 155 99 q 185 115 214 132 q 243 149 269 172 q 272 175 276 175 q 288 175 288 165 q 288 157 276 147 q 265 137 245 124 q 225 112 198 98 q 172 83 143 67 l 142 66 q 123 19 98 -28 q 74 -76 46 -114 q 19 -152 -12 -176 q -43 -199 -74 -199 q -99 -199 -112 -180 q -126 -160 -126 -137 q -126 -105 -99 -73 q -72 -41 -34 -12 q 5 16 48 40 q 91 65 123 82 q 137 115 146 144 q 156 172 161 190 q 153 178 139 160 q 125 142 108 125 q 92 108 74 96 q 57 83 42 83 q 24 83 18 99 q 11 115 11 129 q 11 148 21 172 q 31 196 47 218 q 63 239 84 254 q 104 269 124 269 z m 101 151 q 102 157 107 166 q 112 175 118 186 q 123 196 128 208 q 132 220 132 231 q 132 236 131 240 q 130 245 124 245 q 109 245 93 232 q 77 219 64 201 q 51 183 42 163 q 34 143 34 129 q 34 125 36 116 q 37 106 42 106 q 54 106 70 119 q 85 132 101 151 z m 109 48 q 70 27 32 4 q -5 -19 -35 -43 q -65 -67 -84 -91 q -102 -115 -102 -139 q -102 -153 -94 -164 q -87 -175 -72 -175 q -47 -175 -22 -155 q 3 -135 26 -103 q 49 -71 70 -32 q 92 8 109 48 z"},"j":{"x_min":0,"x_max":141,"ha":141,"o":"m 39 317 q 39 325 44 330 q 50 335 58 335 q 65 335 70 330 q 76 325 76 317 q 76 309 70 304 q 65 299 58 299 q 50 299 44 304 q 39 309 39 317 z m -35 4 q -16 49 0 100 q 17 151 27 199 q 29 208 30 216 q 31 225 33 233 q 35 244 44 244 q 49 244 52 240 q 56 237 56 232 q 56 227 55 221 q 54 215 53 210 q 45 174 32 128 q 20 83 3 35 q 44 68 83 102 q 122 135 160 172 q 163 175 167 175 q 179 175 179 165 q 179 159 162 142 q 145 126 118 102 q 90 79 56 50 q 21 22 -14 -8 q -22 -26 -36 -59 q -51 -92 -71 -124 q -91 -157 -115 -180 q -139 -204 -164 -204 q -177 -204 -188 -196 q -199 -189 -199 -175 q -199 -166 -194 -156 q -189 -147 -184 -139 q -166 -114 -144 -92 q -121 -70 -98 -50 q -83 -36 -67 -23 q -51 -10 -35 4 z m -163 -181 q -150 -181 -136 -170 q -122 -158 -108 -139 q -95 -120 -82 -95 q -68 -70 -56 -43 q -81 -64 -102 -84 q -124 -105 -140 -122 q -157 -139 -166 -152 q -176 -166 -176 -175 q -176 -178 -170 -180 q -165 -181 -163 -181 z"},"i":{"x_min":0,"x_max":143,"ha":143,"o":"m 68 293 q 68 301 74 306 q 79 311 87 311 q 94 311 100 306 q 105 301 105 293 q 105 285 100 280 q 94 275 87 275 q 79 275 74 280 q 68 285 68 293 z m 49 55 q 24 55 13 71 q 2 87 2 110 q 2 133 13 164 q 24 194 37 213 q 40 218 44 224 q 48 229 54 229 q 59 229 62 226 q 66 222 66 217 q 66 215 60 204 q 54 194 46 178 q 39 163 32 144 q 26 125 26 106 q 26 95 31 86 q 36 78 49 78 q 63 78 78 89 q 94 100 109 116 q 124 131 137 146 q 150 162 159 171 q 164 176 168 176 q 173 176 176 172 q 180 169 180 164 q 180 162 179 160 q 178 159 177 157 q 168 145 152 128 q 137 110 120 94 q 102 78 84 66 q 65 55 49 55 z"},"y":{"x_min":0,"x_max":254,"ha":254,"o":"m 54 88 q 33 88 26 104 q 18 120 18 137 q 18 149 22 164 q 27 180 34 196 q 41 211 50 225 q 58 239 65 249 q 68 254 73 260 q 78 266 84 266 q 89 266 92 262 q 96 259 96 254 q 96 251 88 239 q 79 227 69 210 q 59 193 50 174 q 42 154 42 135 q 42 130 44 120 q 45 111 53 111 q 64 111 81 130 q 98 148 116 172 q 135 196 151 219 q 167 242 175 251 q 178 256 184 256 q 189 256 192 252 q 196 249 196 244 q 196 241 196 238 q 195 236 194 233 q 189 210 178 174 q 168 137 153 95 l 155 95 q 185 113 214 130 q 243 148 269 172 q 272 175 276 175 q 288 175 288 165 q 288 158 276 147 q 264 136 244 122 q 224 109 196 94 q 169 78 139 60 l 138 60 q 117 11 92 -39 q 66 -89 37 -130 q 8 -170 -24 -195 q -55 -220 -87 -220 q -112 -220 -126 -200 q -139 -181 -139 -158 q -139 -127 -112 -94 q -84 -60 -44 -29 q -5 2 40 30 q 85 57 120 76 q 135 112 146 143 q 157 174 162 194 q 155 184 142 166 q 128 148 113 130 q 98 113 82 100 q 67 88 54 88 z m 104 40 q 64 16 25 -9 q -14 -34 -45 -60 q -76 -85 -96 -110 q -115 -136 -115 -160 q -115 -174 -108 -185 q -100 -196 -85 -196 q -60 -196 -34 -175 q -9 -154 16 -120 q 40 -87 62 -44 q 85 -2 104 40 z"},"@":{"x_min":0,"x_max":560,"ha":560,"o":"m 176 147 q 176 168 184 190 q 192 211 206 229 q 220 247 240 258 q 259 269 282 269 q 287 269 296 268 q 304 267 312 264 q 321 262 328 258 q 334 254 334 247 q 334 242 330 239 q 327 236 322 236 q 318 236 316 238 q 313 240 309 241 q 302 244 294 244 q 287 245 279 245 q 261 245 246 235 q 231 225 221 210 q 211 194 206 176 q 200 158 200 142 q 200 136 202 128 q 204 119 212 119 q 221 119 236 136 q 251 153 266 174 q 281 195 294 212 q 307 229 314 229 q 322 229 324 226 q 326 222 326 215 q 320 193 320 170 q 320 160 322 149 q 324 138 329 128 q 334 119 342 113 q 351 107 363 107 q 382 107 400 120 q 417 132 429 149 q 441 166 448 186 q 456 205 460 226 q 463 247 463 266 q 463 299 450 322 q 437 345 416 360 q 395 374 368 381 q 340 388 311 388 q 260 388 217 366 q 174 344 142 308 q 110 272 92 226 q 74 180 74 131 q 74 96 86 70 q 98 43 119 25 q 140 7 168 -2 q 197 -11 230 -11 q 279 -11 330 10 q 380 30 413 67 q 416 71 421 71 q 433 71 433 61 q 433 53 426 46 q 419 39 414 34 q 398 19 375 6 q 352 -7 326 -16 q 300 -25 274 -30 q 247 -35 226 -35 q 198 -35 176 -28 q 50 7 50 137 q 50 191 71 241 q 92 291 128 329 q 165 367 214 390 q 263 412 318 412 q 371 412 416 388 q 460 364 479 312 q 484 300 486 286 q 487 273 487 260 q 487 235 478 204 q 470 174 454 147 q 439 120 416 102 q 393 84 363 84 q 345 84 332 92 q 320 99 312 112 q 304 124 300 140 q 297 155 297 170 l 297 177 q 291 169 281 155 q 271 141 260 128 q 248 115 236 106 q 224 96 213 96 q 191 96 184 112 q 176 129 176 147 z"},".":{"x_min":0,"x_max":182,"ha":182,"o":"m 46 69 q 46 81 55 90 q 64 98 76 98 q 87 98 96 90 q 105 81 105 69 q 105 57 96 49 q 87 41 76 41 q 64 41 55 49 q 46 57 46 69 z"},"p":{"x_min":0,"x_max":269,"ha":269,"o":"m -163 -247 q -161 -241 -160 -239 q -154 -225 -146 -206 q -137 -186 -126 -163 l -60 -14 q -43 26 -26 63 q 0 119 25 174 q 50 229 79 283 q 81 288 86 295 q 90 302 96 302 q 108 302 108 292 q 108 287 107 285 q 94 263 83 242 q 72 220 61 197 l 34 137 q 66 185 96 216 q 125 246 149 246 q 173 246 186 228 q 200 210 200 188 q 200 148 185 112 q 211 121 235 136 q 259 150 283 173 q 286 176 290 176 q 302 176 302 166 q 302 160 298 156 q 295 152 291 148 q 264 122 234 108 q 203 93 169 83 q 152 57 126 42 q 101 26 68 26 q 56 26 42 34 q 27 41 27 55 q 27 68 38 74 q 50 79 60 81 q 86 87 109 92 q 132 97 154 103 q 177 143 177 187 q 177 200 170 211 q 163 222 149 222 q 133 222 112 201 q 90 180 66 145 q 42 110 17 66 q -8 22 -32 -24 q -56 -71 -77 -115 q -98 -159 -113 -193 q -120 -209 -126 -224 q -133 -240 -142 -257 l -142 -259 q -147 -267 -153 -267 q -161 -267 -163 -263 q -165 -259 -165 -252 q -164 -251 -164 -250 q -164 -249 -163 -247 z m 53 54 q 55 52 60 50 q 65 49 69 49 q 104 49 130 73 q 112 68 90 64 q 67 61 53 54 z"},"X":{"x_min":0,"x_max":473,"ha":473,"o":"m -40 476 q -40 504 -30 536 q -19 567 0 594 q 19 620 46 638 q 72 655 103 655 q 130 655 152 637 q 174 619 192 590 q 211 562 226 526 q 240 490 251 454 q 262 419 270 388 q 278 356 283 336 q 288 317 293 296 q 298 276 303 253 q 335 288 367 322 q 399 356 431 391 q 465 428 497 466 q 529 503 558 543 q 572 563 584 582 q 596 602 609 622 q 613 628 619 628 q 624 628 628 624 q 631 621 631 616 q 631 614 629 610 q 598 556 560 506 q 521 456 479 409 q 437 362 394 317 q 352 272 309 227 q 323 167 340 102 q 358 36 380 -26 q 402 -88 428 -142 q 455 -195 487 -230 q 509 -254 528 -264 q 548 -274 577 -284 q 586 -286 586 -294 q 586 -306 576 -306 q 559 -306 540 -297 q 522 -288 504 -275 q 486 -262 471 -247 q 456 -232 447 -219 q 419 -180 396 -127 q 372 -74 352 -16 q 333 43 318 101 q 303 159 291 208 q 256 172 214 126 q 171 81 130 31 q 90 -19 56 -70 q 23 -122 5 -170 q 3 -176 2 -178 l -2 -193 q -3 -196 -5 -200 q -9 -209 -16 -209 q -21 -209 -24 -206 q -28 -202 -28 -197 q -28 -194 -26 -187 q -24 -180 -21 -172 q -18 -164 -16 -156 q -13 -149 -11 -146 q 24 -69 76 -2 q 129 65 185 127 q 210 154 235 181 q 260 208 285 234 q 285 236 284 236 q 284 237 284 239 l 281 248 q 281 251 280 252 l 261 329 q 252 366 240 405 q 234 427 222 465 q 211 503 194 540 q 176 577 153 604 q 130 631 100 631 q 73 631 52 614 q 30 598 15 574 q 0 550 -8 522 q -16 494 -16 471 q -16 452 -11 432 q -6 413 4 398 q 15 382 31 372 q 47 363 69 363 q 79 363 88 366 q 98 369 107 369 q 119 369 119 359 q 119 352 112 348 q 106 344 98 342 q 89 340 80 340 q 71 339 66 339 q 55 339 45 342 q 35 345 25 349 q 7 357 -5 371 q -17 385 -25 402 q -33 420 -36 439 q -40 458 -40 476 z"},"*":{"x_min":0,"x_max":369,"ha":369,"o":"m 138 370 q 140 374 140 375 q 147 389 152 404 q 157 420 162 435 q 162 436 162 436 q 163 437 163 438 l 165 445 q 165 446 166 446 q 166 447 166 448 q 147 440 128 432 q 109 425 89 420 l 85 420 q 75 422 75 432 q 77 440 83 442 q 88 444 94 446 q 101 447 107 449 q 122 454 136 460 q 151 466 167 473 l 168 474 q 142 506 120 534 q 97 562 90 571 q 88 573 88 579 q 88 584 92 587 q 95 590 100 589 q 105 589 108 586 q 128 564 146 542 q 163 520 181 497 q 186 511 190 526 q 194 541 198 555 q 201 567 203 578 q 205 590 208 601 q 210 606 212 610 q 215 613 221 612 q 226 612 229 608 q 232 604 231 599 q 230 586 222 556 q 215 526 204 491 q 231 504 258 516 q 285 528 314 538 l 317 538 q 330 536 328 527 q 328 519 320 515 q 301 508 283 501 q 265 494 246 486 l 206 467 q 223 448 240 430 q 258 412 276 394 q 279 391 279 384 q 279 379 276 376 q 272 373 267 373 q 261 374 239 396 q 217 418 191 448 q 183 421 176 400 q 168 378 163 369 q 161 365 158 362 q 154 358 149 358 q 138 360 138 370 z"},"Y":{"x_min":0,"x_max":496,"ha":496,"o":"m 338 600 q 338 593 329 582 q 320 572 304 559 q 289 546 269 531 q 249 516 226 500 q 215 486 204 472 q 194 459 185 444 q 169 419 153 388 q 137 356 124 322 q 112 288 104 254 q 97 219 97 189 q 97 170 100 151 q 104 132 112 118 q 121 103 136 94 q 151 85 174 85 q 201 85 230 102 q 259 119 288 146 q 318 174 347 209 q 376 244 402 280 q 427 317 449 352 q 471 386 487 412 q 501 448 519 482 q 537 516 557 542 q 560 547 567 547 q 572 547 576 543 q 581 539 581 534 q 581 528 572 510 q 563 492 550 470 q 538 449 526 428 q 513 408 506 397 q 477 321 460 240 q 444 160 427 81 q 419 42 410 3 q 400 -36 387 -73 q 374 -110 356 -144 q 337 -179 310 -210 q 282 -241 244 -260 q 206 -279 164 -279 q 136 -279 113 -269 q 90 -259 74 -241 q 59 -223 50 -199 q 42 -175 42 -148 q 42 -124 50 -100 q 59 -77 75 -58 q 91 -38 112 -26 q 134 -14 159 -14 q 172 -14 186 -20 q 200 -25 211 -35 q 222 -45 230 -58 q 237 -70 237 -84 q 237 -89 234 -92 q 230 -96 225 -96 q 218 -96 214 -87 q 211 -78 206 -67 q 201 -56 190 -47 q 179 -38 156 -38 q 135 -38 118 -49 q 101 -60 90 -77 q 78 -94 72 -114 q 66 -134 66 -153 q 66 -199 94 -227 q 122 -255 168 -255 q 191 -255 214 -248 q 236 -240 256 -226 q 298 -197 325 -151 q 352 -105 370 -52 q 388 2 399 57 q 410 112 419 159 q 427 199 436 239 q 446 279 457 319 q 436 288 405 244 q 374 199 336 158 q 297 118 254 90 q 212 61 169 61 q 142 61 124 72 q 106 84 94 102 q 83 121 78 144 q 73 167 73 189 q 73 223 81 258 q 89 293 102 328 q 115 362 132 394 q 148 427 165 456 l 166 457 q 167 459 167 459 q 124 428 89 399 q 54 370 45 349 q 43 344 42 340 q 41 336 33 336 q 28 336 24 339 q 21 342 21 347 q 21 357 27 366 q 33 375 40 383 q 49 394 59 403 q 69 412 80 421 q 84 424 98 434 q 111 444 130 458 q 149 472 170 488 q 192 504 211 518 q 223 534 235 550 q 247 565 259 580 q 270 593 284 604 q 298 616 316 616 q 324 616 331 612 q 338 609 338 600 z"},"c":{"x_min":0,"x_max":192,"ha":192,"o":"m 151 258 q 153 261 156 267 q 158 273 162 279 q 165 285 169 290 q 173 294 177 294 q 189 294 189 284 q 189 281 184 270 q 178 259 171 246 q 164 233 158 221 q 151 209 149 206 q 143 198 138 198 q 125 198 125 209 q 125 216 129 221 q 133 226 133 235 q 133 239 130 248 q 127 258 122 258 q 103 258 85 239 q 67 220 54 194 q 40 167 32 140 q 23 113 23 97 q 23 83 30 69 q 37 55 54 55 q 74 55 96 68 q 119 81 140 100 q 162 118 181 138 q 200 158 213 171 q 218 176 222 176 q 227 176 230 172 q 234 169 234 164 q 234 161 230 154 q 225 148 219 142 q 213 135 207 129 q 201 123 198 120 q 186 108 168 92 q 151 77 131 64 q 111 50 90 40 q 70 31 52 31 q 39 31 29 38 q 19 44 12 54 q 5 63 2 75 q -1 87 -1 99 q -1 120 9 151 q 19 182 36 212 q 53 241 76 262 q 98 282 122 282 q 133 282 140 274 q 147 267 151 258 z"},"!":{"x_min":0,"x_max":329,"ha":329,"o":"m 94 111 q 94 113 106 146 q 117 180 135 230 q 153 280 175 339 q 197 398 218 452 q 238 506 256 547 q 273 588 281 602 q 285 609 291 609 q 296 609 300 606 q 303 602 303 597 q 303 596 301 592 q 278 541 258 490 q 239 440 219 388 q 201 340 183 293 q 165 246 148 198 q 140 176 132 152 q 125 129 116 107 q 113 100 105 100 q 94 100 94 111 z m 68 56 q 68 64 74 69 q 79 74 87 74 q 94 74 100 69 q 105 64 105 56 q 105 48 100 43 q 94 38 87 38 q 79 38 74 43 q 68 48 68 56 z"},"/":{"x_min":0,"x_max":335,"ha":335,"o":"m 23 -43 q 23 -40 24 -38 q 57 37 96 108 q 134 179 172 251 q 207 314 242 376 q 276 437 311 499 q 328 528 345 558 q 362 587 380 615 q 383 620 389 620 q 401 620 401 610 q 401 605 400 603 q 319 465 240 327 q 162 189 90 46 q 78 23 68 -1 q 57 -25 44 -48 q 41 -55 34 -55 q 29 -55 26 -52 q 23 -48 23 -43 z"},"[":{"x_min":0,"x_max":262,"ha":262,"o":"m 166 613 q 187 613 210 611 q 232 609 253 606 q 264 606 264 595 q 264 590 260 587 q 257 584 252 584 q 232 584 214 586 q 195 587 175 589 l 52 -96 l 135 -102 q 145 -102 145 -112 q 145 -124 135 -124 q 111 -124 86 -123 q 60 -122 37 -118 q 27 -118 27 -107 l 27 -105 l 155 603 q 157 613 166 613 z"},"6":{"x_min":0,"x_max":2103,"ha":2103,"o":"m 47 319 q 47 383 58 430 q 69 477 96 508 q 122 539 166 554 q 211 569 278 569 q 345 569 389 554 q 433 539 460 508 q 486 477 497 430 q 508 383 508 319 q 508 256 497 208 q 486 161 460 130 q 433 99 389 84 q 345 68 278 68 q 211 68 166 84 q 122 99 96 130 q 69 161 58 208 q 47 256 47 319 z m 79 319 q 79 262 87 220 q 95 177 117 148 q 139 120 178 106 q 217 92 278 92 q 339 92 378 106 q 416 120 438 148 q 460 177 468 220 q 476 262 476 319 q 476 376 468 418 q 460 460 438 488 q 416 517 378 531 q 339 545 278 545 q 217 545 178 531 q 140 517 118 488 q 96 460 88 418 q 79 376 79 319 z m 2007 318 q 2007 238 1962 192 q 1918 146 1837 146 q 1756 146 1712 192 q 1667 238 1667 318 q 1667 398 1712 444 q 1756 490 1837 490 q 1917 490 1962 444 q 2007 398 2007 318 z m 293 256 l 293 298 l 291 303 l 187 409 l 187 208 q 187 205 188 198 q 188 191 193 191 l 137 191 q 142 191 142 198 q 143 205 143 208 l 143 453 q 143 457 142 462 q 142 468 137 470 l 193 470 l 191 468 q 191 453 203 441 l 290 353 l 291 352 q 293 352 293 353 l 293 469 q 293 472 292 478 q 292 485 287 486 l 346 486 q 337 482 337 469 l 337 256 z m 218 433 q 219 447 219 458 q 219 468 218 476 q 217 484 212 486 l 268 486 q 263 484 262 469 q 260 454 260 436 q 260 419 261 404 q 262 390 262 389 z m 880 317 q 880 257 846 214 q 813 171 753 158 q 736 154 718 154 q 701 153 684 153 l 568 153 l 568 483 l 687 483 q 728 483 763 474 q 798 465 824 445 q 850 425 865 394 q 880 362 880 317 z m 945 153 l 945 483 l 1184 483 l 1184 419 l 1030 419 l 1030 362 l 1173 362 l 1173 299 l 1030 299 l 1030 217 l 1184 217 l 1184 153 z m 1517 153 l 1517 374 l 1456 230 l 1397 230 l 1335 374 l 1335 153 l 1255 153 l 1255 483 l 1354 483 l 1428 317 l 1503 483 l 1602 483 l 1602 153 z m 212 151 q 216 153 217 158 q 218 163 218 168 l 218 370 l 262 325 q 262 321 262 310 q 261 299 261 287 q 261 275 262 265 q 263 255 265 252 l 273 251 l 355 251 l 365 252 q 368 255 368 260 l 368 441 q 368 446 368 451 q 367 456 362 458 l 418 458 q 414 456 413 451 q 412 446 412 441 l 412 184 q 412 181 412 174 q 413 167 418 167 l 362 167 q 367 167 368 174 q 368 181 368 184 q 368 189 369 202 q 370 215 365 220 l 265 220 q 262 216 262 211 l 262 168 q 262 163 262 158 q 263 153 268 151 z m 1837 208 q 1860 208 1876 218 q 1892 227 1902 243 q 1911 259 1915 278 q 1919 298 1919 318 q 1919 338 1915 358 q 1911 377 1902 393 q 1892 409 1876 418 q 1860 428 1837 428 q 1814 428 1798 418 q 1782 409 1772 393 q 1763 377 1759 358 q 1755 338 1755 318 q 1755 298 1759 278 q 1763 259 1772 243 q 1782 227 1798 218 q 1814 208 1837 208 z m 792 319 q 792 348 784 368 q 775 387 760 399 q 744 411 722 416 q 701 421 674 421 l 653 421 l 653 215 l 674 215 q 730 215 761 238 q 792 260 792 319 z m 337 215 q 337 213 336 206 q 336 199 336 191 q 336 183 338 176 q 339 169 343 167 l 287 167 q 291 168 292 176 q 294 183 294 192 q 294 200 294 208 q 293 215 293 215 z"},"r":{"x_min":0,"x_max":181,"ha":181,"o":"m -21 51 q -21 56 -16 70 q -12 85 -5 105 q 2 125 10 148 q 19 170 27 190 q 35 210 42 226 q 48 241 51 246 q 56 253 61 253 q 73 253 73 243 q 73 240 70 232 q 68 225 64 216 q 60 207 57 199 q 54 191 52 188 q 57 196 66 210 q 76 225 87 239 q 98 253 110 263 q 121 273 131 273 q 147 273 152 262 q 157 251 157 237 q 157 225 157 212 q 157 200 174 200 q 184 200 192 204 q 200 208 209 208 q 221 208 221 198 q 221 189 213 186 q 204 182 193 180 q 182 177 172 177 q 151 177 142 190 q 134 203 134 223 q 134 228 134 236 q 134 244 132 249 q 129 249 125 246 q 121 242 119 240 q 101 222 84 198 q 68 174 54 148 q 39 122 26 96 q 13 69 1 46 q -2 40 -9 40 q -14 40 -18 43 q -21 46 -21 51 z"},"2":{"x_min":0,"x_max":2103,"ha":2103,"o":"m 47 319 q 47 383 58 430 q 69 477 96 508 q 122 539 166 554 q 211 569 278 569 q 345 569 389 554 q 433 539 460 508 q 486 477 497 430 q 508 383 508 319 q 508 256 497 208 q 486 161 460 130 q 433 99 389 84 q 345 68 278 68 q 211 68 166 84 q 122 99 96 130 q 69 161 58 208 q 47 256 47 319 z m 79 319 q 79 262 87 220 q 95 177 117 148 q 139 120 178 106 q 217 92 278 92 q 339 92 378 106 q 416 120 438 148 q 460 177 468 220 q 476 262 476 319 q 476 376 468 418 q 460 460 438 488 q 416 517 378 531 q 339 545 278 545 q 217 545 178 531 q 140 517 118 488 q 96 460 88 418 q 79 376 79 319 z m 2007 318 q 2007 238 1962 192 q 1918 146 1837 146 q 1756 146 1712 192 q 1667 238 1667 318 q 1667 398 1712 444 q 1756 490 1837 490 q 1917 490 1962 444 q 2007 398 2007 318 z m 293 256 l 293 298 l 291 303 l 187 409 l 187 208 q 187 205 188 198 q 188 191 193 191 l 137 191 q 142 191 142 198 q 143 205 143 208 l 143 453 q 143 457 142 462 q 142 468 137 470 l 193 470 l 191 468 q 191 453 203 441 l 290 353 l 291 352 q 293 352 293 353 l 293 469 q 293 472 292 478 q 292 485 287 486 l 346 486 q 337 482 337 469 l 337 256 z m 218 433 q 219 447 219 458 q 219 468 218 476 q 217 484 212 486 l 268 486 q 263 484 262 469 q 260 454 260 436 q 260 419 261 404 q 262 390 262 389 z m 880 317 q 880 257 846 214 q 813 171 753 158 q 736 154 718 154 q 701 153 684 153 l 568 153 l 568 483 l 687 483 q 728 483 763 474 q 798 465 824 445 q 850 425 865 394 q 880 362 880 317 z m 945 153 l 945 483 l 1184 483 l 1184 419 l 1030 419 l 1030 362 l 1173 362 l 1173 299 l 1030 299 l 1030 217 l 1184 217 l 1184 153 z m 1517 153 l 1517 374 l 1456 230 l 1397 230 l 1335 374 l 1335 153 l 1255 153 l 1255 483 l 1354 483 l 1428 317 l 1503 483 l 1602 483 l 1602 153 z m 212 151 q 216 153 217 158 q 218 163 218 168 l 218 370 l 262 325 q 262 321 262 310 q 261 299 261 287 q 261 275 262 265 q 263 255 265 252 l 273 251 l 355 251 l 365 252 q 368 255 368 260 l 368 441 q 368 446 368 451 q 367 456 362 458 l 418 458 q 414 456 413 451 q 412 446 412 441 l 412 184 q 412 181 412 174 q 413 167 418 167 l 362 167 q 367 167 368 174 q 368 181 368 184 q 368 189 369 202 q 370 215 365 220 l 265 220 q 262 216 262 211 l 262 168 q 262 163 262 158 q 263 153 268 151 z m 1837 208 q 1860 208 1876 218 q 1892 227 1902 243 q 1911 259 1915 278 q 1919 298 1919 318 q 1919 338 1915 358 q 1911 377 1902 393 q 1892 409 1876 418 q 1860 428 1837 428 q 1814 428 1798 418 q 1782 409 1772 393 q 1763 377 1759 358 q 1755 338 1755 318 q 1755 298 1759 278 q 1763 259 1772 243 q 1782 227 1798 218 q 1814 208 1837 208 z m 792 319 q 792 348 784 368 q 775 387 760 399 q 744 411 722 416 q 701 421 674 421 l 653 421 l 653 215 l 674 215 q 730 215 761 238 q 792 260 792 319 z m 337 215 q 337 213 336 206 q 336 199 336 191 q 336 183 338 176 q 339 169 343 167 l 287 167 q 291 168 292 176 q 294 183 294 192 q 294 200 294 208 q 293 215 293 215 z"},"{":{"x_min":0,"x_max":332,"ha":332,"o":"m 52 270 q 52 278 64 282 q 76 286 92 292 q 107 298 122 308 q 137 319 144 340 q 149 355 150 372 q 150 388 152 403 q 156 433 164 470 q 172 507 188 539 q 203 571 228 592 q 254 614 293 614 q 299 614 305 612 q 311 611 311 603 q 311 591 301 591 q 289 591 278 590 q 268 589 257 583 q 231 570 215 542 q 199 513 190 478 q 181 444 176 409 q 171 374 168 348 q 167 330 160 317 q 152 304 140 294 q 128 284 113 277 q 98 270 83 265 q 91 256 100 246 q 110 236 118 224 q 126 213 132 201 q 137 189 137 176 q 137 156 134 136 q 130 117 126 98 q 121 78 117 58 q 113 39 113 19 q 113 -14 122 -36 q 132 -59 144 -74 q 156 -89 166 -98 q 175 -107 175 -111 q 175 -116 172 -120 q 168 -123 163 -123 q 158 -123 153 -118 q 148 -113 144 -110 q 115 -81 102 -52 q 90 -22 90 20 q 90 40 94 60 q 98 79 102 98 q 107 117 110 136 q 114 156 114 176 q 114 191 104 205 q 95 219 83 232 q 71 244 62 254 q 52 264 52 270 z"},"9":{"x_min":0,"x_max":2103,"ha":2103,"o":"m 47 319 q 47 383 58 430 q 69 477 96 508 q 122 539 166 554 q 211 569 278 569 q 345 569 389 554 q 433 539 460 508 q 486 477 497 430 q 508 383 508 319 q 508 256 497 208 q 486 161 460 130 q 433 99 389 84 q 345 68 278 68 q 211 68 166 84 q 122 99 96 130 q 69 161 58 208 q 47 256 47 319 z m 79 319 q 79 262 87 220 q 95 177 117 148 q 139 120 178 106 q 217 92 278 92 q 339 92 378 106 q 416 120 438 148 q 460 177 468 220 q 476 262 476 319 q 476 376 468 418 q 460 460 438 488 q 416 517 378 531 q 339 545 278 545 q 217 545 178 531 q 140 517 118 488 q 96 460 88 418 q 79 376 79 319 z m 2007 318 q 2007 238 1962 192 q 1918 146 1837 146 q 1756 146 1712 192 q 1667 238 1667 318 q 1667 398 1712 444 q 1756 490 1837 490 q 1917 490 1962 444 q 2007 398 2007 318 z m 293 256 l 293 298 l 291 303 l 187 409 l 187 208 q 187 205 188 198 q 188 191 193 191 l 137 191 q 142 191 142 198 q 143 205 143 208 l 143 453 q 143 457 142 462 q 142 468 137 470 l 193 470 l 191 468 q 191 453 203 441 l 290 353 l 291 352 q 293 352 293 353 l 293 469 q 293 472 292 478 q 292 485 287 486 l 346 486 q 337 482 337 469 l 337 256 z m 218 433 q 219 447 219 458 q 219 468 218 476 q 217 484 212 486 l 268 486 q 263 484 262 469 q 260 454 260 436 q 260 419 261 404 q 262 390 262 389 z m 880 317 q 880 257 846 214 q 813 171 753 158 q 736 154 718 154 q 701 153 684 153 l 568 153 l 568 483 l 687 483 q 728 483 763 474 q 798 465 824 445 q 850 425 865 394 q 880 362 880 317 z m 945 153 l 945 483 l 1184 483 l 1184 419 l 1030 419 l 1030 362 l 1173 362 l 1173 299 l 1030 299 l 1030 217 l 1184 217 l 1184 153 z m 1517 153 l 1517 374 l 1456 230 l 1397 230 l 1335 374 l 1335 153 l 1255 153 l 1255 483 l 1354 483 l 1428 317 l 1503 483 l 1602 483 l 1602 153 z m 212 151 q 216 153 217 158 q 218 163 218 168 l 218 370 l 262 325 q 262 321 262 310 q 261 299 261 287 q 261 275 262 265 q 263 255 265 252 l 273 251 l 355 251 l 365 252 q 368 255 368 260 l 368 441 q 368 446 368 451 q 367 456 362 458 l 418 458 q 414 456 413 451 q 412 446 412 441 l 412 184 q 412 181 412 174 q 413 167 418 167 l 362 167 q 367 167 368 174 q 368 181 368 184 q 368 189 369 202 q 370 215 365 220 l 265 220 q 262 216 262 211 l 262 168 q 262 163 262 158 q 263 153 268 151 z m 1837 208 q 1860 208 1876 218 q 1892 227 1902 243 q 1911 259 1915 278 q 1919 298 1919 318 q 1919 338 1915 358 q 1911 377 1902 393 q 1892 409 1876 418 q 1860 428 1837 428 q 1814 428 1798 418 q 1782 409 1772 393 q 1763 377 1759 358 q 1755 338 1755 318 q 1755 298 1759 278 q 1763 259 1772 243 q 1782 227 1798 218 q 1814 208 1837 208 z m 792 319 q 792 348 784 368 q 775 387 760 399 q 744 411 722 416 q 701 421 674 421 l 653 421 l 653 215 l 674 215 q 730 215 761 238 q 792 260 792 319 z m 337 215 q 337 213 336 206 q 336 199 336 191 q 336 183 338 176 q 339 169 343 167 l 287 167 q 291 168 292 176 q 294 183 294 192 q 294 200 294 208 q 293 215 293 215 z"}," ":{"x_min":0,"x_max":280,"ha":280,"o":""},"I":{"x_min":0,"x_max":464,"ha":464,"o":"m 47 -169 q 72 -169 96 -167 q 121 -165 146 -162 q 160 -105 181 -51 q 202 3 224 57 q 243 103 262 148 q 282 194 303 239 q 306 280 306 314 q 306 333 306 364 q 305 394 302 428 q 298 463 291 498 q 284 532 271 560 q 231 566 201 579 q 171 592 171 615 q 171 626 178 634 q 185 642 196 642 q 228 642 250 625 q 271 608 286 581 q 317 577 348 576 q 380 575 401 575 q 421 575 440 576 q 460 577 480 579 q 487 590 494 600 q 500 609 507 619 q 510 624 516 624 q 521 624 524 620 q 528 617 528 612 q 528 608 525 605 l 510 582 q 553 587 596 592 q 638 596 681 596 q 692 596 705 596 q 718 595 729 593 q 740 593 740 582 q 740 577 736 574 q 733 571 728 571 l 718 571 l 697 573 l 686 573 q 638 573 590 568 q 543 562 495 557 q 447 477 406 396 q 365 315 326 230 q 320 135 301 36 q 282 -64 252 -149 q 274 -147 296 -146 q 317 -144 340 -144 q 345 -144 357 -144 q 369 -145 382 -146 q 395 -148 404 -152 q 414 -155 414 -162 q 414 -174 404 -174 l 401 -174 q 384 -171 368 -169 q 352 -167 335 -167 q 312 -167 289 -169 q 266 -171 243 -173 q 239 -184 232 -198 q 225 -213 216 -226 q 206 -240 194 -249 q 183 -258 170 -258 q 150 -258 143 -246 q 136 -234 136 -217 q 136 -210 137 -204 q 138 -197 140 -189 l 141 -186 q 115 -188 88 -190 q 62 -192 35 -192 q 32 -192 25 -192 q 18 -192 12 -190 q 5 -189 0 -186 q -5 -183 -5 -177 q -5 -172 -2 -169 q 2 -166 7 -166 q 17 -166 26 -168 q 36 -169 47 -169 z m 206 601 q 224 591 256 585 q 245 601 230 610 q 216 619 197 619 q 194 619 194 615 q 194 610 198 606 q 203 603 206 601 z m 329 294 q 361 360 394 426 q 427 492 465 555 q 434 552 401 552 q 387 552 358 552 q 329 553 297 557 q 309 527 316 494 q 322 461 325 427 q 328 393 328 360 q 329 326 329 294 z m 170 -159 q 174 -159 177 -158 q 180 -158 184 -157 l 212 -154 q 216 -153 219 -153 q 222 -153 226 -152 q 239 -120 250 -82 q 261 -43 270 -2 q 279 40 286 82 q 293 125 297 166 q 277 122 258 77 q 238 32 222 -10 q 205 -52 192 -90 q 178 -128 170 -159 z m 165 -182 q 160 -207 160 -220 q 160 -225 160 -230 q 161 -235 169 -235 q 176 -235 183 -228 q 190 -221 197 -212 q 204 -202 209 -192 q 214 -182 217 -176 q 204 -178 191 -179 q 178 -180 165 -182 z"},"H":{"x_min":0,"x_max":759,"ha":759,"o":"m 203 387 q 215 387 222 390 q 228 394 232 398 q 237 401 240 404 q 243 408 247 408 q 259 408 259 398 q 259 391 253 385 q 242 373 229 368 q 216 363 201 363 q 179 363 162 373 q 146 383 135 398 q 124 414 118 434 q 113 453 113 472 q 113 483 115 495 q 117 507 122 517 q 142 569 188 596 q 234 623 288 623 q 319 623 350 617 q 380 611 410 602 q 443 592 476 582 q 510 571 545 571 q 571 571 606 579 q 623 600 640 612 q 656 624 673 624 q 681 624 688 620 q 696 617 696 607 q 696 600 689 592 q 682 585 670 579 q 659 573 646 568 q 632 562 618 558 l 618 557 q 590 520 572 477 q 553 434 536 392 q 520 354 503 311 q 486 268 467 222 q 524 227 578 249 q 631 271 682 305 q 689 318 704 344 q 719 370 739 402 q 759 433 782 466 q 805 500 828 528 q 852 555 874 572 q 895 590 912 590 q 923 590 928 582 q 932 574 932 565 q 932 552 925 538 q 911 505 886 471 q 862 437 832 404 q 801 371 768 342 q 734 313 702 290 q 677 242 656 196 q 634 149 619 101 q 604 53 596 2 q 587 -48 587 -103 q 587 -150 596 -192 q 606 -234 629 -276 q 631 -280 631 -282 q 631 -287 628 -290 q 624 -294 619 -294 q 611 -294 607 -286 q 603 -277 600 -272 q 581 -236 572 -190 q 564 -144 564 -103 q 564 -51 570 -4 q 577 42 590 86 q 603 131 621 174 q 639 218 662 264 q 615 236 564 218 q 512 200 457 198 q 436 150 413 102 q 390 54 364 10 q 338 -33 308 -70 q 278 -106 244 -132 q 221 -149 193 -158 q 165 -168 136 -168 q 103 -168 78 -155 q 52 -142 34 -120 q 17 -98 8 -70 q -1 -41 -1 -10 q -1 16 7 40 q 26 100 68 130 q 110 161 173 161 q 199 161 222 152 q 246 142 263 122 q 265 120 268 114 q 271 109 271 106 q 271 94 261 94 q 255 94 250 100 q 246 107 237 116 q 228 124 212 130 q 197 137 169 137 q 136 137 109 126 q 82 114 63 94 q 44 74 34 46 q 23 19 23 -14 q 23 -68 53 -106 q 83 -144 140 -144 q 187 -144 228 -116 q 268 -87 304 -40 q 340 8 372 70 q 403 132 431 198 q 393 200 358 214 q 322 227 299 261 q 297 265 294 273 q 290 281 290 284 q 290 296 300 296 q 308 296 312 289 q 316 282 319 276 q 322 269 327 262 q 347 237 378 229 q 409 221 440 221 q 460 268 478 314 q 497 361 515 404 q 533 447 550 484 q 568 522 586 551 l 583 550 q 574 549 566 548 q 558 548 550 548 q 516 548 484 556 q 452 564 420 574 q 387 583 354 591 q 322 599 288 599 q 260 599 233 590 q 206 581 184 564 q 163 548 150 524 q 137 500 137 470 q 137 455 141 440 q 145 426 154 414 q 162 402 174 394 q 187 387 203 387 z m 728 338 q 766 369 800 404 q 834 439 860 474 q 865 481 874 493 q 882 505 890 518 q 898 532 904 545 q 909 558 909 566 q 891 563 864 532 q 836 502 808 464 q 781 425 758 389 q 736 353 728 338 z"},"4":{"x_min":0,"x_max":2103,"ha":2103,"o":"m 47 319 q 47 383 58 430 q 69 477 96 508 q 122 539 166 554 q 211 569 278 569 q 345 569 389 554 q 433 539 460 508 q 486 477 497 430 q 508 383 508 319 q 508 256 497 208 q 486 161 460 130 q 433 99 389 84 q 345 68 278 68 q 211 68 166 84 q 122 99 96 130 q 69 161 58 208 q 47 256 47 319 z m 79 319 q 79 262 87 220 q 95 177 117 148 q 139 120 178 106 q 217 92 278 92 q 339 92 378 106 q 416 120 438 148 q 460 177 468 220 q 476 262 476 319 q 476 376 468 418 q 460 460 438 488 q 416 517 378 531 q 339 545 278 545 q 217 545 178 531 q 140 517 118 488 q 96 460 88 418 q 79 376 79 319 z m 2007 318 q 2007 238 1962 192 q 1918 146 1837 146 q 1756 146 1712 192 q 1667 238 1667 318 q 1667 398 1712 444 q 1756 490 1837 490 q 1917 490 1962 444 q 2007 398 2007 318 z m 293 256 l 293 298 l 291 303 l 187 409 l 187 208 q 187 205 188 198 q 188 191 193 191 l 137 191 q 142 191 142 198 q 143 205 143 208 l 143 453 q 143 457 142 462 q 142 468 137 470 l 193 470 l 191 468 q 191 453 203 441 l 290 353 l 291 352 q 293 352 293 353 l 293 469 q 293 472 292 478 q 292 485 287 486 l 346 486 q 337 482 337 469 l 337 256 z m 218 433 q 219 447 219 458 q 219 468 218 476 q 217 484 212 486 l 268 486 q 263 484 262 469 q 260 454 260 436 q 260 419 261 404 q 262 390 262 389 z m 880 317 q 880 257 846 214 q 813 171 753 158 q 736 154 718 154 q 701 153 684 153 l 568 153 l 568 483 l 687 483 q 728 483 763 474 q 798 465 824 445 q 850 425 865 394 q 880 362 880 317 z m 945 153 l 945 483 l 1184 483 l 1184 419 l 1030 419 l 1030 362 l 1173 362 l 1173 299 l 1030 299 l 1030 217 l 1184 217 l 1184 153 z m 1517 153 l 1517 374 l 1456 230 l 1397 230 l 1335 374 l 1335 153 l 1255 153 l 1255 483 l 1354 483 l 1428 317 l 1503 483 l 1602 483 l 1602 153 z m 212 151 q 216 153 217 158 q 218 163 218 168 l 218 370 l 262 325 q 262 321 262 310 q 261 299 261 287 q 261 275 262 265 q 263 255 265 252 l 273 251 l 355 251 l 365 252 q 368 255 368 260 l 368 441 q 368 446 368 451 q 367 456 362 458 l 418 458 q 414 456 413 451 q 412 446 412 441 l 412 184 q 412 181 412 174 q 413 167 418 167 l 362 167 q 367 167 368 174 q 368 181 368 184 q 368 189 369 202 q 370 215 365 220 l 265 220 q 262 216 262 211 l 262 168 q 262 163 262 158 q 263 153 268 151 z m 1837 208 q 1860 208 1876 218 q 1892 227 1902 243 q 1911 259 1915 278 q 1919 298 1919 318 q 1919 338 1915 358 q 1911 377 1902 393 q 1892 409 1876 418 q 1860 428 1837 428 q 1814 428 1798 418 q 1782 409 1772 393 q 1763 377 1759 358 q 1755 338 1755 318 q 1755 298 1759 278 q 1763 259 1772 243 q 1782 227 1798 218 q 1814 208 1837 208 z m 792 319 q 792 348 784 368 q 775 387 760 399 q 744 411 722 416 q 701 421 674 421 l 653 421 l 653 215 l 674 215 q 730 215 761 238 q 792 260 792 319 z m 337 215 q 337 213 336 206 q 336 199 336 191 q 336 183 338 176 q 339 169 343 167 l 287 167 q 291 168 292 176 q 294 183 294 192 q 294 200 294 208 q 293 215 293 215 z"},"~":{"x_min":0,"x_max":498,"ha":498,"o":"m 202 288 q 183 288 168 279 q 152 270 140 259 q 128 248 120 239 q 111 230 105 230 q 94 230 94 241 q 94 246 97 249 q 119 273 145 292 q 171 312 206 312 q 230 312 242 299 q 254 286 263 270 q 272 254 284 241 q 295 228 318 228 q 344 228 360 237 q 375 246 384 257 q 393 268 398 277 q 404 286 410 286 q 415 286 418 282 q 422 279 422 274 q 422 269 418 264 q 414 258 411 254 q 395 229 370 217 q 345 205 315 205 q 288 205 274 218 q 260 231 250 246 q 241 262 232 275 q 222 288 202 288 z"},"D":{"x_min":0,"x_max":714,"ha":714,"o":"m 120 543 q 120 569 132 594 q 143 620 162 640 q 181 659 206 671 q 230 683 256 683 q 274 683 293 674 q 312 666 323 651 q 324 649 326 646 q 327 642 327 640 q 327 628 317 628 q 311 628 308 633 q 304 638 298 644 q 292 649 282 654 q 272 659 253 659 q 231 659 211 648 q 191 638 176 620 q 161 603 152 582 q 144 560 144 539 q 144 506 164 486 q 183 467 216 467 q 238 467 262 474 q 286 482 309 494 q 332 505 354 519 q 375 533 391 546 q 394 552 400 567 q 407 582 416 598 q 425 614 434 626 q 444 638 452 638 q 460 638 463 632 q 466 625 466 619 q 466 597 450 575 q 434 553 411 533 q 396 500 378 462 q 361 424 346 388 q 330 353 317 324 q 304 295 298 281 q 286 254 273 227 q 260 200 244 174 q 262 200 288 234 q 313 268 342 306 q 371 343 404 382 q 436 420 468 454 q 500 487 532 513 q 563 539 590 552 q 602 558 615 562 q 628 566 642 566 q 660 566 670 556 q 680 547 686 532 q 691 518 692 502 q 694 486 694 473 q 694 428 686 386 q 677 343 663 301 q 687 311 706 318 q 726 326 731 326 q 736 326 740 322 q 743 319 743 314 q 743 307 735 303 q 714 295 694 287 q 673 279 653 271 q 628 204 592 140 q 556 75 510 18 q 464 -39 410 -86 q 355 -134 293 -169 q 261 -187 224 -198 q 186 -208 150 -208 q 122 -208 100 -196 q 77 -183 77 -151 q 77 -135 86 -116 q 94 -97 103 -83 q 142 -26 206 29 q 269 84 343 133 q 417 182 494 222 q 571 263 636 290 q 653 337 662 382 q 670 428 670 473 l 671 479 q 671 487 670 498 q 670 509 667 519 q 664 529 658 536 q 651 542 639 542 q 611 542 572 514 q 534 487 492 444 q 449 400 406 347 q 362 294 324 243 q 285 192 254 149 q 224 106 208 83 q 187 53 167 22 q 147 -9 125 -38 q 122 -42 117 -42 q 105 -42 105 -32 q 105 -28 106 -26 q 128 18 152 60 q 176 102 200 144 q 213 167 226 189 q 239 211 251 234 q 281 295 308 356 q 334 418 362 481 l 372 503 q 337 480 296 462 q 254 443 212 443 q 169 443 144 472 q 120 501 120 543 z m 623 258 l 620 258 q 560 231 498 198 q 436 165 376 127 q 316 89 262 46 q 207 2 162 -46 q 153 -55 142 -68 q 132 -81 122 -96 q 113 -110 107 -125 q 101 -140 101 -153 q 101 -164 106 -170 q 111 -176 119 -179 q 127 -182 136 -183 q 146 -184 154 -184 q 202 -184 250 -164 q 299 -143 337 -115 q 380 -84 422 -42 q 464 -1 501 47 q 538 95 570 148 q 601 202 623 258 z"},"^":{"x_min":0,"x_max":371,"ha":371,"o":"m 73 299 q 61 299 61 309 q 61 319 68 320 q 74 321 79 324 q 93 331 116 353 q 139 375 164 402 q 188 429 211 454 q 234 480 247 494 q 250 498 254 502 q 259 505 264 505 q 269 505 272 502 q 275 498 277 493 q 277 491 279 487 q 282 469 285 444 q 288 418 291 392 q 294 365 298 342 q 302 318 308 303 q 312 297 312 292 q 312 279 300 279 q 289 279 289 290 q 280 309 276 332 q 271 355 268 379 q 266 403 264 427 q 262 451 258 472 q 250 464 236 448 q 222 432 204 412 q 187 393 168 373 q 149 353 131 336 q 113 320 98 310 q 83 299 73 299 z"},"0":{"x_min":0,"x_max":2103,"ha":2103,"o":"m 47 319 q 47 383 58 430 q 69 477 96 508 q 122 539 166 554 q 211 569 278 569 q 345 569 389 554 q 433 539 460 508 q 486 477 497 430 q 508 383 508 319 q 508 256 497 208 q 486 161 460 130 q 433 99 389 84 q 345 68 278 68 q 211 68 166 84 q 122 99 96 130 q 69 161 58 208 q 47 256 47 319 z m 79 319 q 79 262 87 220 q 95 177 117 148 q 139 120 178 106 q 217 92 278 92 q 339 92 378 106 q 416 120 438 148 q 460 177 468 220 q 476 262 476 319 q 476 376 468 418 q 460 460 438 488 q 416 517 378 531 q 339 545 278 545 q 217 545 178 531 q 140 517 118 488 q 96 460 88 418 q 79 376 79 319 z m 2007 318 q 2007 238 1962 192 q 1918 146 1837 146 q 1756 146 1712 192 q 1667 238 1667 318 q 1667 398 1712 444 q 1756 490 1837 490 q 1917 490 1962 444 q 2007 398 2007 318 z m 293 256 l 293 298 l 291 303 l 187 409 l 187 208 q 187 205 188 198 q 188 191 193 191 l 137 191 q 142 191 142 198 q 143 205 143 208 l 143 453 q 143 457 142 462 q 142 468 137 470 l 193 470 l 191 468 q 191 453 203 441 l 290 353 l 291 352 q 293 352 293 353 l 293 469 q 293 472 292 478 q 292 485 287 486 l 346 486 q 337 482 337 469 l 337 256 z m 218 433 q 219 447 219 458 q 219 468 218 476 q 217 484 212 486 l 268 486 q 263 484 262 469 q 260 454 260 436 q 260 419 261 404 q 262 390 262 389 z m 880 317 q 880 257 846 214 q 813 171 753 158 q 736 154 718 154 q 701 153 684 153 l 568 153 l 568 483 l 687 483 q 728 483 763 474 q 798 465 824 445 q 850 425 865 394 q 880 362 880 317 z m 945 153 l 945 483 l 1184 483 l 1184 419 l 1030 419 l 1030 362 l 1173 362 l 1173 299 l 1030 299 l 1030 217 l 1184 217 l 1184 153 z m 1517 153 l 1517 374 l 1456 230 l 1397 230 l 1335 374 l 1335 153 l 1255 153 l 1255 483 l 1354 483 l 1428 317 l 1503 483 l 1602 483 l 1602 153 z m 212 151 q 216 153 217 158 q 218 163 218 168 l 218 370 l 262 325 q 262 321 262 310 q 261 299 261 287 q 261 275 262 265 q 263 255 265 252 l 273 251 l 355 251 l 365 252 q 368 255 368 260 l 368 441 q 368 446 368 451 q 367 456 362 458 l 418 458 q 414 456 413 451 q 412 446 412 441 l 412 184 q 412 181 412 174 q 413 167 418 167 l 362 167 q 367 167 368 174 q 368 181 368 184 q 368 189 369 202 q 370 215 365 220 l 265 220 q 262 216 262 211 l 262 168 q 262 163 262 158 q 263 153 268 151 z m 1837 208 q 1860 208 1876 218 q 1892 227 1902 243 q 1911 259 1915 278 q 1919 298 1919 318 q 1919 338 1915 358 q 1911 377 1902 393 q 1892 409 1876 418 q 1860 428 1837 428 q 1814 428 1798 418 q 1782 409 1772 393 q 1763 377 1759 358 q 1755 338 1755 318 q 1755 298 1759 278 q 1763 259 1772 243 q 1782 227 1798 218 q 1814 208 1837 208 z m 792 319 q 792 348 784 368 q 775 387 760 399 q 744 411 722 416 q 701 421 674 421 l 653 421 l 653 215 l 674 215 q 730 215 761 238 q 792 260 792 319 z m 337 215 q 337 213 336 206 q 336 199 336 191 q 336 183 338 176 q 339 169 343 167 l 287 167 q 291 168 292 176 q 294 183 294 192 q 294 200 294 208 q 293 215 293 215 z"},"F":{"x_min":0,"x_max":690,"ha":690,"o":"m 214 426 q 226 426 232 430 q 239 433 244 436 q 248 440 251 444 q 254 447 258 447 q 270 447 270 437 q 270 430 264 424 q 253 412 240 407 q 227 402 212 402 q 190 402 174 412 q 157 422 146 438 q 135 454 130 474 q 124 494 124 513 q 124 536 132 558 q 141 579 156 598 q 171 616 190 630 q 210 643 231 650 q 248 655 266 658 q 285 662 303 662 q 347 662 386 644 q 425 627 466 606 q 506 584 550 566 q 593 549 646 549 q 649 549 652 549 q 656 549 661 550 q 686 588 713 610 q 740 633 770 633 q 783 633 792 626 q 802 619 802 605 q 802 586 790 572 q 777 559 758 550 q 738 541 716 536 q 694 530 674 528 q 656 499 642 470 q 629 440 621 422 q 607 391 594 360 q 580 328 566 296 l 557 273 q 577 273 598 271 q 618 269 638 263 q 644 280 653 296 q 662 313 670 313 q 675 313 678 310 q 682 306 682 301 q 682 295 674 282 q 665 268 659 254 q 674 244 674 230 q 674 222 668 216 q 663 210 655 210 q 639 210 636 220 q 633 230 633 241 q 613 247 590 248 q 568 249 547 249 q 534 219 522 189 q 509 159 495 129 q 476 87 450 35 q 424 -17 389 -62 q 354 -107 310 -138 q 266 -169 211 -169 q 178 -169 152 -156 q 127 -143 110 -121 q 92 -99 83 -70 q 74 -42 74 -11 q 74 13 82 39 q 100 99 143 130 q 186 160 248 160 q 274 160 298 150 q 321 141 338 121 q 340 119 343 114 q 346 108 346 105 q 346 93 336 93 q 330 93 326 100 q 321 106 312 114 q 303 123 288 130 q 272 136 244 136 q 211 136 184 124 q 157 113 138 93 q 119 73 108 46 q 98 18 98 -15 q 98 -69 128 -107 q 158 -145 215 -145 q 266 -145 308 -112 q 351 -78 388 -22 q 425 33 458 104 q 491 174 521 247 q 491 244 462 238 q 432 232 401 232 q 360 232 340 264 q 338 266 336 271 q 335 276 335 278 q 335 290 345 290 q 353 290 356 284 q 358 279 362 273 q 366 267 376 262 q 385 256 406 256 q 428 256 450 260 q 471 264 492 267 q 502 269 512 270 q 521 271 531 272 q 560 343 589 409 q 618 475 647 526 q 591 526 546 544 q 502 561 462 582 q 421 603 382 620 q 343 638 299 638 q 271 638 244 629 q 217 620 196 604 q 174 587 161 563 q 148 539 148 509 q 148 494 152 480 q 156 465 164 453 q 173 441 186 434 q 198 426 214 426 z m 692 554 q 707 557 722 561 q 738 565 750 571 q 763 577 771 586 q 779 594 779 605 q 779 608 776 608 q 772 609 770 609 q 749 609 729 593 q 709 577 692 554 z"},"`":{"x_min":0,"x_max":207,"ha":207,"o":"m 148 368 q 150 359 139 355 q 132 355 128 359 q 125 362 113 374 q 101 387 88 400 q 74 414 64 426 q 53 437 53 438 q 52 443 55 447 q 58 451 63 452 q 69 453 73 449 q 77 446 89 434 q 101 422 114 408 q 126 395 136 383 q 147 371 148 368 z"},"k":{"x_min":0,"x_max":276,"ha":276,"o":"m 325 539 q 325 529 321 518 q 317 506 312 497 q 294 465 268 433 q 243 401 213 371 q 183 341 151 314 q 119 288 89 267 q 87 265 85 265 q 62 219 43 176 q 24 132 11 94 q 19 106 29 122 q 39 138 52 155 q 52 163 56 170 q 59 177 69 177 q 93 207 121 230 q 149 254 177 254 q 185 254 191 248 q 197 242 197 234 q 197 224 192 216 q 187 208 182 200 q 165 177 138 165 q 110 153 81 153 l 80 153 l 78 151 q 84 141 97 130 q 110 119 125 110 q 140 100 156 94 q 171 88 182 88 q 200 88 216 96 q 231 105 244 118 q 258 130 270 144 q 282 159 292 172 q 295 177 301 177 q 306 177 310 174 q 313 170 313 165 q 313 159 304 148 q 295 137 291 132 q 282 122 270 110 q 259 98 246 88 q 232 78 217 72 q 202 65 188 65 q 171 65 153 70 q 135 76 118 86 q 102 95 88 107 q 74 119 64 132 q 49 111 36 90 q 23 70 14 55 l -10 15 q -13 10 -20 10 q -25 10 -28 13 q -32 16 -32 21 l -31 23 q -24 60 -8 107 q 9 154 32 205 q 54 256 81 308 q 108 359 138 406 q 167 453 197 492 q 227 531 255 556 q 263 563 274 570 q 284 576 295 576 q 310 576 318 564 q 325 553 325 539 z m 108 310 q 110 312 111 312 l 116 317 q 164 355 205 396 q 246 436 279 488 q 285 497 293 512 q 301 528 301 539 q 301 542 300 547 q 300 552 295 552 q 283 552 266 536 q 249 521 230 497 q 211 473 191 444 q 171 416 154 389 q 138 362 126 340 q 113 319 108 310 z m 100 178 q 123 183 144 196 q 165 210 173 230 q 163 230 152 223 q 127 210 100 178 z"},"u":{"x_min":0,"x_max":219,"ha":219,"o":"m 44 85 q 26 85 19 96 q 12 107 12 123 q 12 135 16 150 q 21 165 28 180 q 34 195 42 209 q 51 223 59 232 q 62 237 68 237 q 73 237 76 234 q 80 230 80 225 q 80 222 73 212 q 66 201 58 186 q 49 171 42 154 q 35 136 35 119 q 35 114 36 111 q 38 108 44 108 q 55 108 68 122 q 82 137 96 156 q 109 175 120 194 q 132 212 138 220 q 143 225 147 225 q 159 225 159 215 q 159 211 154 200 q 148 189 142 175 q 136 161 130 146 q 125 131 125 118 q 125 102 139 102 q 155 102 172 114 q 188 125 202 139 q 216 153 228 164 q 239 176 244 176 q 249 176 252 172 q 256 169 256 164 q 256 158 244 146 q 233 135 218 122 q 204 109 190 99 q 175 89 169 86 q 161 83 154 81 q 146 79 137 79 q 115 79 108 94 q 102 108 102 126 q 92 115 76 100 q 61 85 44 85 z"},"]":{"x_min":0,"x_max":296,"ha":296,"o":"m 110 -124 q 89 -124 66 -122 q 44 -120 23 -117 q 12 -117 12 -106 q 12 -101 16 -98 q 19 -95 24 -95 q 44 -95 62 -96 q 81 -98 101 -100 l 224 585 l 141 591 q 131 591 131 601 q 131 613 141 613 q 165 613 190 612 q 216 611 239 607 q 249 607 249 596 l 249 594 l 121 -114 q 119 -124 110 -124 z"},"U":{"x_min":0,"x_max":607,"ha":607,"o":"m 39 265 q 27 265 27 275 q 27 285 37 287 q 50 289 60 292 q 71 294 82 299 q 116 313 152 344 q 187 374 219 412 q 239 459 258 506 q 277 553 303 596 q 308 604 318 616 q 327 627 338 627 q 347 627 352 622 q 357 616 357 608 q 357 590 342 560 q 327 529 308 498 q 288 466 268 439 q 248 412 237 399 q 221 361 206 323 q 191 285 178 252 q 165 219 156 194 q 146 168 142 155 q 131 123 122 85 q 113 47 113 12 q 113 -23 126 -47 q 140 -71 180 -71 q 224 -71 268 -44 q 312 -17 354 26 q 396 69 434 123 q 472 177 505 231 q 523 283 544 333 q 565 383 586 429 q 607 475 628 514 q 648 553 667 582 q 670 586 674 590 q 677 593 682 593 q 695 593 695 580 q 695 567 684 538 q 674 510 658 474 q 642 439 622 399 q 602 359 583 322 q 564 286 548 258 q 532 229 524 215 q 492 129 470 44 q 449 -40 449 -109 q 449 -129 452 -148 q 454 -167 459 -187 l 460 -188 q 460 -193 456 -197 q 453 -201 448 -201 q 440 -201 436 -188 q 431 -176 429 -160 q 427 -144 426 -129 q 426 -114 426 -108 q 426 -60 439 3 q 452 66 474 137 q 443 91 408 49 q 372 7 334 -25 q 296 -57 256 -76 q 216 -95 175 -95 q 151 -95 134 -86 q 118 -77 108 -62 q 99 -47 94 -28 q 90 -8 90 13 q 90 47 100 89 q 110 131 125 176 q 140 221 158 266 q 176 310 192 349 q 155 312 116 288 q 77 265 39 265 z m 276 488 q 315 547 332 597 q 324 588 309 558 q 294 529 276 488 z"},"o":{"x_min":0,"x_max":169,"ha":169,"o":"m 23 172 q 23 196 38 216 q 54 236 80 236 q 105 236 116 218 q 126 200 126 178 q 126 162 120 144 q 141 146 158 152 q 174 159 193 173 q 195 174 196 175 q 198 176 200 176 q 205 176 208 172 q 212 169 212 164 q 212 159 208 155 q 203 151 199 148 q 180 134 156 128 q 132 121 109 121 q 99 103 84 90 q 69 78 51 78 q 28 78 18 93 q 7 108 7 128 q 7 151 23 172 z m 69 198 q 74 198 80 196 q 86 195 86 187 q 86 175 76 175 q 60 175 48 166 q 53 155 67 151 q 81 147 95 145 q 103 164 103 178 q 103 189 98 201 q 94 213 80 213 q 61 213 51 194 q 56 196 60 197 q 64 198 69 198 z m 34 146 q 32 141 31 137 q 30 133 30 128 q 30 117 34 109 q 39 101 51 101 q 60 101 68 107 q 76 113 83 123 q 69 125 56 130 q 42 136 34 146 z"},"N":{"x_min":0,"x_max":573,"ha":573,"o":"m 39 265 q 27 265 27 275 q 27 285 37 287 q 50 289 60 292 q 71 294 82 299 q 115 313 150 343 q 186 373 218 411 q 237 459 258 508 q 278 557 303 596 q 308 604 318 616 q 327 627 338 627 q 347 627 352 622 q 357 616 357 608 q 357 590 342 560 q 327 529 307 498 q 287 466 267 438 q 247 411 236 398 q 213 344 190 286 q 166 227 145 175 q 124 123 108 82 q 92 41 84 20 q 101 47 135 100 q 169 152 212 215 q 254 278 303 344 q 352 410 399 464 q 446 517 488 552 q 531 586 561 586 q 586 586 594 568 q 603 550 603 530 q 603 508 597 478 q 591 448 583 417 q 575 386 566 356 q 556 327 549 305 q 536 262 518 208 q 501 154 486 98 q 471 42 460 -12 q 450 -66 450 -109 q 450 -147 459 -187 l 460 -188 q 460 -193 456 -197 q 453 -201 448 -201 q 440 -201 436 -190 q 432 -178 430 -163 q 428 -148 428 -134 q 427 -119 427 -113 q 427 -61 438 -2 q 450 58 467 119 q 484 180 504 238 q 523 297 538 347 q 544 366 552 390 q 559 413 565 438 q 571 462 576 486 q 580 510 580 529 q 580 539 578 550 q 575 562 561 562 q 542 562 515 544 q 488 525 457 494 q 426 462 392 420 q 359 379 326 334 q 292 290 260 244 q 229 199 202 160 q 175 120 155 88 q 135 57 124 40 q 104 8 84 -25 q 65 -58 43 -90 q 40 -95 34 -95 q 29 -95 26 -92 q 22 -88 22 -83 q 22 -78 33 -48 q 44 -17 62 26 q 79 70 100 121 q 120 172 139 218 q 158 265 173 301 q 188 337 193 350 q 156 313 116 289 q 77 265 39 265 z m 274 486 q 294 515 308 544 q 323 572 332 597 q 324 587 308 558 q 293 528 274 486 z"},"+":{"x_min":0,"x_max":375,"ha":375,"o":"m 134 118 q 134 126 138 142 q 143 157 149 174 q 155 192 161 208 q 167 224 170 233 l 179 257 q 153 254 128 251 q 103 248 77 248 q 69 248 58 250 q 48 252 48 262 q 48 271 54 272 q 60 274 67 274 l 82 272 l 89 272 q 114 272 138 275 q 163 278 188 281 q 195 298 202 314 q 208 330 216 347 q 218 352 222 360 l 241 400 q 243 405 245 413 q 247 421 255 421 q 267 421 267 411 q 267 400 258 384 q 249 367 244 356 q 240 347 232 328 q 224 309 214 284 q 222 285 230 285 q 238 285 246 285 q 252 285 266 284 q 280 284 294 282 q 309 280 320 275 q 332 270 332 262 q 332 257 328 254 q 325 251 320 251 q 317 251 315 252 q 297 259 281 260 q 265 262 246 262 q 235 262 226 262 q 216 261 205 260 q 196 238 188 215 q 179 192 172 172 q 166 152 162 138 q 157 123 157 117 q 157 104 146 104 q 139 104 136 108 q 134 113 134 118 z"},"G":{"x_min":0,"x_max":553,"ha":553,"o":"m 499 419 q 478 419 470 434 q 461 448 461 466 q 461 489 473 516 q 485 544 502 568 q 489 582 472 590 q 455 599 435 599 q 398 599 360 578 q 323 557 290 524 q 256 490 227 446 q 198 403 177 358 q 156 313 144 270 q 132 227 132 194 q 132 173 136 154 q 141 134 151 118 q 161 103 178 94 q 194 85 218 85 q 263 85 302 106 q 342 126 376 158 q 410 189 438 227 q 467 265 490 300 q 504 332 521 364 q 538 396 557 420 q 560 425 567 425 q 572 425 576 421 q 581 417 581 412 q 581 406 576 398 q 572 389 570 384 q 542 335 508 284 q 500 262 493 240 q 486 217 480 194 q 467 138 459 86 q 451 34 439 -16 q 427 -65 406 -112 q 386 -160 346 -207 q 319 -239 280 -259 q 242 -279 199 -279 q 171 -279 148 -269 q 125 -259 110 -241 q 94 -223 86 -199 q 77 -175 77 -148 q 77 -124 86 -100 q 94 -77 110 -58 q 126 -38 148 -26 q 169 -14 194 -14 q 207 -14 221 -20 q 235 -25 246 -35 q 257 -45 264 -58 q 272 -70 272 -84 q 272 -89 268 -92 q 265 -96 260 -96 q 253 -96 250 -87 q 246 -78 241 -67 q 236 -56 225 -47 q 214 -38 191 -38 q 170 -38 153 -49 q 136 -60 124 -77 q 113 -94 107 -114 q 101 -134 101 -153 q 101 -199 129 -227 q 157 -255 203 -255 q 231 -255 256 -244 q 282 -234 303 -217 q 350 -177 376 -124 q 401 -72 416 -14 q 431 45 440 106 q 449 166 463 222 q 440 193 414 164 q 387 135 356 112 q 325 89 290 75 q 255 61 215 61 q 187 61 167 72 q 147 84 134 102 q 121 121 115 145 q 109 169 109 193 q 109 230 122 276 q 134 322 157 370 q 180 418 210 464 q 241 509 278 544 q 315 580 356 602 q 396 623 438 623 q 458 623 480 612 q 502 602 516 587 q 530 604 544 615 q 559 626 580 634 q 588 636 594 636 q 606 636 606 626 q 606 616 597 614 q 589 611 582 609 q 576 607 568 603 q 558 597 549 588 q 540 580 531 569 q 554 534 554 491 q 554 479 551 466 q 548 453 541 442 q 534 432 524 426 q 513 419 499 419 z m 516 548 q 502 527 494 504 q 485 482 485 462 q 485 455 488 448 q 490 442 499 442 q 509 442 515 448 q 521 453 524 461 q 528 469 529 478 q 530 488 530 495 q 530 523 516 548 z"},"q":{"x_min":0,"x_max":245,"ha":245,"o":"m 134 286 q 154 286 160 272 q 167 259 167 242 q 174 253 180 264 q 187 276 195 287 q 198 292 204 292 q 216 292 216 282 q 216 277 215 275 q 151 173 95 65 l 96 64 q 114 70 138 84 q 162 99 186 116 q 210 132 230 148 q 251 163 261 172 q 265 176 269 176 q 274 176 278 172 q 281 169 281 164 q 281 156 262 140 q 243 124 216 106 q 189 89 159 72 q 129 55 107 46 q 113 33 116 17 q 120 1 122 -14 q 124 -30 124 -44 q 125 -57 125 -64 q 125 -114 105 -162 q 85 -209 47 -243 q 37 -252 24 -259 q 10 -266 -4 -266 q -20 -266 -28 -254 q -36 -241 -36 -227 q -36 -198 -26 -160 q -16 -123 -1 -85 q 14 -47 30 -11 q 47 25 60 50 q 60 57 62 64 q 65 70 72 73 q 77 84 82 94 q 88 104 93 114 q 79 100 66 92 q 54 83 44 83 q 35 83 29 88 q 23 93 20 100 q 16 107 14 116 q 12 124 12 131 q 12 149 24 176 q 36 202 54 226 q 72 251 94 268 q 115 286 134 286 z m 60 115 q 72 124 84 136 q 95 148 107 162 q 111 170 117 181 q 123 192 129 204 q 135 216 139 228 q 143 240 143 249 q 143 254 142 258 q 140 262 134 262 q 119 262 102 246 q 85 230 70 208 q 55 187 46 164 q 36 142 36 128 q 36 125 38 116 q 39 106 44 106 q 47 106 52 110 q 58 113 60 115 z m 28 -230 q 46 -217 60 -197 q 73 -177 82 -154 q 92 -132 97 -108 q 102 -85 102 -63 q 102 -40 99 -12 q 96 15 84 38 l 82 37 q 63 -1 46 -39 q 28 -77 15 -112 q 2 -146 -6 -176 q -13 -205 -13 -226 q -13 -232 -11 -238 q -9 -243 -2 -243 q 6 -243 14 -238 q 22 -234 28 -230 z"},"d":{"x_min":0,"x_max":253,"ha":253,"o":"m 129 269 q 143 269 149 260 q 155 252 157 241 q 180 281 204 323 q 227 365 248 403 q 270 441 288 472 q 307 502 319 518 q 322 523 328 523 q 333 523 336 520 q 340 516 340 511 q 340 509 338 505 q 308 451 274 391 q 241 331 213 268 q 185 204 167 139 q 149 74 149 11 q 149 -18 154 -40 q 159 -62 173 -88 q 175 -92 175 -94 q 175 -99 172 -102 q 168 -106 163 -106 q 156 -106 152 -100 q 149 -94 147 -89 q 133 -65 129 -38 q 125 -10 125 18 q 125 68 136 116 q 148 163 165 209 q 162 204 157 196 q 152 188 146 178 q 136 156 124 144 q 114 129 103 114 q 92 100 80 88 q 69 77 58 70 q 47 63 38 63 q 17 63 10 80 q 2 96 2 113 q 2 133 14 160 q 26 187 44 211 q 63 235 86 252 q 108 269 129 269 z m 97 146 q 97 151 103 156 l 105 157 l 126 190 q 134 210 134 236 q 134 241 133 243 q 132 245 127 245 q 111 245 93 230 q 75 214 60 192 q 45 171 36 148 q 26 125 26 110 q 26 105 28 96 q 30 86 37 86 q 48 86 63 102 q 78 119 97 146 z"},"1":{"x_min":0,"x_max":2103,"ha":2103,"o":"m 47 319 q 47 383 58 430 q 69 477 96 508 q 122 539 166 554 q 211 569 278 569 q 345 569 389 554 q 433 539 460 508 q 486 477 497 430 q 508 383 508 319 q 508 256 497 208 q 486 161 460 130 q 433 99 389 84 q 345 68 278 68 q 211 68 166 84 q 122 99 96 130 q 69 161 58 208 q 47 256 47 319 z m 79 319 q 79 262 87 220 q 95 177 117 148 q 139 120 178 106 q 217 92 278 92 q 339 92 378 106 q 416 120 438 148 q 460 177 468 220 q 476 262 476 319 q 476 376 468 418 q 460 460 438 488 q 416 517 378 531 q 339 545 278 545 q 217 545 178 531 q 140 517 118 488 q 96 460 88 418 q 79 376 79 319 z m 2007 318 q 2007 238 1962 192 q 1918 146 1837 146 q 1756 146 1712 192 q 1667 238 1667 318 q 1667 398 1712 444 q 1756 490 1837 490 q 1917 490 1962 444 q 2007 398 2007 318 z m 293 256 l 293 298 l 291 303 l 187 409 l 187 208 q 187 205 188 198 q 188 191 193 191 l 137 191 q 142 191 142 198 q 143 205 143 208 l 143 453 q 143 457 142 462 q 142 468 137 470 l 193 470 l 191 468 q 191 453 203 441 l 290 353 l 291 352 q 293 352 293 353 l 293 469 q 293 472 292 478 q 292 485 287 486 l 346 486 q 337 482 337 469 l 337 256 z m 218 433 q 219 447 219 458 q 219 468 218 476 q 217 484 212 486 l 268 486 q 263 484 262 469 q 260 454 260 436 q 260 419 261 404 q 262 390 262 389 z m 880 317 q 880 257 846 214 q 813 171 753 158 q 736 154 718 154 q 701 153 684 153 l 568 153 l 568 483 l 687 483 q 728 483 763 474 q 798 465 824 445 q 850 425 865 394 q 880 362 880 317 z m 945 153 l 945 483 l 1184 483 l 1184 419 l 1030 419 l 1030 362 l 1173 362 l 1173 299 l 1030 299 l 1030 217 l 1184 217 l 1184 153 z m 1517 153 l 1517 374 l 1456 230 l 1397 230 l 1335 374 l 1335 153 l 1255 153 l 1255 483 l 1354 483 l 1428 317 l 1503 483 l 1602 483 l 1602 153 z m 212 151 q 216 153 217 158 q 218 163 218 168 l 218 370 l 262 325 q 262 321 262 310 q 261 299 261 287 q 261 275 262 265 q 263 255 265 252 l 273 251 l 355 251 l 365 252 q 368 255 368 260 l 368 441 q 368 446 368 451 q 367 456 362 458 l 418 458 q 414 456 413 451 q 412 446 412 441 l 412 184 q 412 181 412 174 q 413 167 418 167 l 362 167 q 367 167 368 174 q 368 181 368 184 q 368 189 369 202 q 370 215 365 220 l 265 220 q 262 216 262 211 l 262 168 q 262 163 262 158 q 263 153 268 151 z m 1837 208 q 1860 208 1876 218 q 1892 227 1902 243 q 1911 259 1915 278 q 1919 298 1919 318 q 1919 338 1915 358 q 1911 377 1902 393 q 1892 409 1876 418 q 1860 428 1837 428 q 1814 428 1798 418 q 1782 409 1772 393 q 1763 377 1759 358 q 1755 338 1755 318 q 1755 298 1759 278 q 1763 259 1772 243 q 1782 227 1798 218 q 1814 208 1837 208 z m 792 319 q 792 348 784 368 q 775 387 760 399 q 744 411 722 416 q 701 421 674 421 l 653 421 l 653 215 l 674 215 q 730 215 761 238 q 792 260 792 319 z m 337 215 q 337 213 336 206 q 336 199 336 191 q 336 183 338 176 q 339 169 343 167 l 287 167 q 291 168 292 176 q 294 183 294 192 q 294 200 294 208 q 293 215 293 215 z"},"5":{"x_min":0,"x_max":2103,"ha":2103,"o":"m 47 319 q 47 383 58 430 q 69 477 96 508 q 122 539 166 554 q 211 569 278 569 q 345 569 389 554 q 433 539 460 508 q 486 477 497 430 q 508 383 508 319 q 508 256 497 208 q 486 161 460 130 q 433 99 389 84 q 345 68 278 68 q 211 68 166 84 q 122 99 96 130 q 69 161 58 208 q 47 256 47 319 z m 79 319 q 79 262 87 220 q 95 177 117 148 q 139 120 178 106 q 217 92 278 92 q 339 92 378 106 q 416 120 438 148 q 460 177 468 220 q 476 262 476 319 q 476 376 468 418 q 460 460 438 488 q 416 517 378 531 q 339 545 278 545 q 217 545 178 531 q 140 517 118 488 q 96 460 88 418 q 79 376 79 319 z m 2007 318 q 2007 238 1962 192 q 1918 146 1837 146 q 1756 146 1712 192 q 1667 238 1667 318 q 1667 398 1712 444 q 1756 490 1837 490 q 1917 490 1962 444 q 2007 398 2007 318 z m 293 256 l 293 298 l 291 303 l 187 409 l 187 208 q 187 205 188 198 q 188 191 193 191 l 137 191 q 142 191 142 198 q 143 205 143 208 l 143 453 q 143 457 142 462 q 142 468 137 470 l 193 470 l 191 468 q 191 453 203 441 l 290 353 l 291 352 q 293 352 293 353 l 293 469 q 293 472 292 478 q 292 485 287 486 l 346 486 q 337 482 337 469 l 337 256 z m 218 433 q 219 447 219 458 q 219 468 218 476 q 217 484 212 486 l 268 486 q 263 484 262 469 q 260 454 260 436 q 260 419 261 404 q 262 390 262 389 z m 880 317 q 880 257 846 214 q 813 171 753 158 q 736 154 718 154 q 701 153 684 153 l 568 153 l 568 483 l 687 483 q 728 483 763 474 q 798 465 824 445 q 850 425 865 394 q 880 362 880 317 z m 945 153 l 945 483 l 1184 483 l 1184 419 l 1030 419 l 1030 362 l 1173 362 l 1173 299 l 1030 299 l 1030 217 l 1184 217 l 1184 153 z m 1517 153 l 1517 374 l 1456 230 l 1397 230 l 1335 374 l 1335 153 l 1255 153 l 1255 483 l 1354 483 l 1428 317 l 1503 483 l 1602 483 l 1602 153 z m 212 151 q 216 153 217 158 q 218 163 218 168 l 218 370 l 262 325 q 262 321 262 310 q 261 299 261 287 q 261 275 262 265 q 263 255 265 252 l 273 251 l 355 251 l 365 252 q 368 255 368 260 l 368 441 q 368 446 368 451 q 367 456 362 458 l 418 458 q 414 456 413 451 q 412 446 412 441 l 412 184 q 412 181 412 174 q 413 167 418 167 l 362 167 q 367 167 368 174 q 368 181 368 184 q 368 189 369 202 q 370 215 365 220 l 265 220 q 262 216 262 211 l 262 168 q 262 163 262 158 q 263 153 268 151 z m 1837 208 q 1860 208 1876 218 q 1892 227 1902 243 q 1911 259 1915 278 q 1919 298 1919 318 q 1919 338 1915 358 q 1911 377 1902 393 q 1892 409 1876 418 q 1860 428 1837 428 q 1814 428 1798 418 q 1782 409 1772 393 q 1763 377 1759 358 q 1755 338 1755 318 q 1755 298 1759 278 q 1763 259 1772 243 q 1782 227 1798 218 q 1814 208 1837 208 z m 792 319 q 792 348 784 368 q 775 387 760 399 q 744 411 722 416 q 701 421 674 421 l 653 421 l 653 215 l 674 215 q 730 215 761 238 q 792 260 792 319 z m 337 215 q 337 213 336 206 q 336 199 336 191 q 336 183 338 176 q 339 169 343 167 l 287 167 q 291 168 292 176 q 294 183 294 192 q 294 200 294 208 q 293 215 293 215 z"}}}
